<svg viewBox="0 0 728 120" fill="none" xmlns="http://www.w3.org/2000/svg">
<path d="M713.42 108.48C712.28 108.48 711.18 108.26 710.15 107.84C709.12 107.41 708.21 106.84 707.44 106.14C706.65 105.41 706.01 104.54 705.55 103.55C705.08 102.53 704.84 101.44 704.84 100.29C704.84 98 705.69 96 707.37 94.36C709.03 92.73 711.07 91.9 713.42 91.9C715.77 91.9 717.71 92.69 719.4 94.25C721.13 95.83 722 97.8 722 100.1C722 102.4 721.15 104.39 719.47 106.02C717.81 107.65 715.77 108.48 713.42 108.48Z" fill="white"/>
<path d="M697.34 102.41L688.83 87.83C686.72 90.48 681.85 93.84 675.49 93.84C671.79 93.84 666.19 92.12 663.21 88.89C660.58 86.04 658.89 81.57 658.89 74.87C658.89 68.17 661.41 63.89 662.9 61.83C664.92 59.05 668.62 56.12 674.16 55.6C677.59 55.28 680.06 56.22 682.15 57.3C684.24 58.38 686.63 60.69 687.92 62.51L696.63 47.42C694.45 45.62 691.87 44.11 688.91 42.92C684.45 41.11 679.75 40.19 674.96 40.19C670.17 40.19 665.62 41.02 661.41 42.65C657.2 44.28 653.45 46.63 650.29 49.61C647.11 52.6 644.56 56.28 642.7 60.55C640.84 64.81 639.9 69.63 639.9 74.87C639.9 80.11 640.84 85.19 642.7 89.44C644.56 93.71 647.14 97.4 650.36 100.38C653.59 103.38 657.41 105.69 661.71 107.22C665.99 108.75 670.57 109.53 675.35 109.53C680.13 109.53 684.8 108.73 689.01 107.15C692.18 105.96 694.97 104.37 697.33 102.4L697.34 102.41Z" fill="white"/>
<path d="M609.39 107.69V71.44C609.39 69.65 609.26 67.76 609 65.82C608.77 63.99 608.24 62.3 607.44 60.8C606.67 59.38 605.59 58.18 604.23 57.24C602.92 56.34 601.1 55.89 598.83 55.89C590.77 55.89 585.38 59.87 585.38 66.23V107.69H567.05V42.16H584.59V46.1C588.31 41.93 598.39 40.2 603.17 40.2C613.1 40.2 619.99 46.07 621.98 48.57C623.96 51.06 625.43 53.96 626.35 57.17C627.26 60.34 627.72 63.64 627.72 66.99V107.71H609.39V107.69Z" fill="white"/>
<path d="M549.01 12.1H529.89V107.69H549.01V12.1Z" fill="white"/>
<path d="M485.79 119.8L493.91 105.74L484.7 100.42L473.51 119.8H485.79Z" fill="white"/>
<path d="M466 12.1H446.9V107.69H466V12.1Z" fill="white"/>
<path d="M389.01 107.69L370.67 46.25L352.22 107.69H334.3L306.35 12.1H326.35L343.57 75.31L361.75 16.04H379.99L397.74 75.03L414.56 12.1H434.88L408.02 107.69H389.01Z" fill="white"/>
<path d="M249.12 110.06C242.16 110.06 235.63 108.82 229.72 106.36C223.8 103.9 218.61 100.4 214.31 95.97C210 91.54 206.59 86.18 204.16 80.04C201.73 73.91 200.5 67.05 200.5 59.64C200.5 52.23 201.73 45.11 204.16 38.98C206.59 32.84 210.01 27.54 214.33 23.24C218.64 18.94 223.83 15.57 229.75 13.25C235.65 10.93 242.17 9.75 249.13 9.75C256.09 9.75 262.75 10.93 268.69 13.25C274.66 15.58 279.89 18.94 284.23 23.24C288.59 27.55 292.03 32.85 294.46 38.99C296.89 45.12 298.12 52.07 298.12 59.65C298.12 67.23 296.89 73.92 294.46 80.05C292.03 86.18 288.59 91.54 284.24 95.98C279.89 100.41 274.67 103.91 268.7 106.37C262.75 108.83 256.16 110.07 249.12 110.07V110.06ZM249.24 26.87C244.85 26.87 240.82 27.72 237.29 29.38C233.74 31.06 230.66 33.39 228.12 36.31C225.57 39.25 223.57 42.73 222.17 46.67C220.77 50.62 220.06 54.99 220.06 59.63C220.06 64.27 220.77 68.92 222.17 72.92C223.57 76.9 225.59 80.41 228.18 83.33C230.76 86.25 233.87 88.56 237.41 90.19C240.95 91.82 244.93 92.65 249.24 92.65C253.55 92.65 257.56 91.82 261.14 90.19C264.72 88.56 267.84 86.25 270.43 83.33C273.02 80.4 275.04 76.9 276.43 72.92C277.83 68.91 278.55 64.44 278.55 59.63C278.55 54.82 277.84 50.63 276.43 46.67C275.03 42.73 273.03 39.24 270.48 36.31C267.94 33.39 264.83 31.06 261.25 29.39C257.67 27.72 253.63 26.87 249.23 26.87H249.24Z" fill="white"/>
<path d="M165.92 107.69L145.44 72.2H134.31V107.69H115.21V12.1H148.81C153.26 12.1 157.64 12.57 161.84 13.51C166.08 14.46 169.92 16.04 173.23 18.22C176.58 20.43 179.31 23.36 181.33 26.94C183.36 30.54 184.38 37.24 184.38 42.35C184.38 51.78 178.76 63.63 164.88 69.59L186.87 107.69H165.92ZM146.57 56.12C148.87 56.12 151.19 55.95 153.48 55.61C155.69 55.28 157.74 54.72 159.46 53.77C163.07 51.77 165.27 46.21 165.27 42.36C165.27 38.51 163.36 33.99 160.36 31.54C158.17 29.75 154.77 28.59 148.01 28.59H134.3V56.13H146.56L146.57 56.12Z" fill="white"/>
<path d="M57.49 110.06C49.83 110.06 42.74 108.82 36.4 106.36C30.05 103.9 24.51 100.4 19.94 95.97C15.37 91.53 11.76 86.18 9.19999 80.04C6.64999 73.91 5.35999 67.05 5.35999 59.64C5.35999 52.23 6.69999 45.1 9.33999 38.96C11.98 32.82 15.66 27.53 20.28 23.22C24.89 18.92 30.41 15.56 36.67 13.23C42.92 10.91 49.78 9.73001 57.09 9.73001C64.4 9.73001 71.66 10.84 77.94 13.02C84.25 15.22 89.42 18.16 93.3 21.77L94.18 22.59L84.11 40.03C81.92 36.5 74.63 31.28 70.57 29.53C66.5 27.77 62.01 26.87 57.21 26.87C52.41 26.87 48.19 27.72 44.38 29.39C40.57 31.06 37.29 33.39 34.62 36.31C31.94 39.24 29.84 42.73 28.37 46.67C26.9 50.62 26.15 54.98 26.15 59.63C26.15 64.28 26.9 68.93 28.37 72.92C29.84 76.91 31.96 80.41 34.68 83.34C37.39 86.26 40.73 88.56 44.62 90.19C48.52 91.83 53.02 92.66 57.99 92.66C64.53 92.66 70.15 91.76 75.06 89.85V72.21H65.38L56.01 56.12H94.16V102.36C89.37 104.67 82.97 106.84 77.25 108.13C71.52 109.42 64.86 110.07 57.45 110.07L57.49 110.06Z" fill="white"/>
</svg>
