<svg xmlns="http://www.w3.org/2000/svg" xmlns:xlink="http://www.w3.org/1999/xlink" width="506.172" height="323.271" viewBox="0 0 506.172 323.271">
  <defs>
    <clipPath id="clip-path">
      <rect id="長方形_2776" data-name="長方形 2776" width="506.172" height="323.271" fill="none"/>
    </clipPath>
  </defs>
  <g id="merit-team" clip-path="url(#clip-path)">
    <path id="パス_47079" data-name="パス 47079" d="M471.792,310.017s73.263-135.458,5.891-209.869c-49.338-54.492-106.294-30.157-145.8-36.819C281.871,54.9,260.1.121,185.338,0,100.275-.137-15.692,53.019,20.39,149.485c32.116,85.86-54.492,41.237-4.418,162.74Z" transform="translate(0 0)" fill="#defae7"/>
    <path id="パス_47080" data-name="パス 47080" d="M147.963,411.782c0-6.507-32.969-11.782-73.638-11.782S.687,405.275.687,411.782s32.969,11.782,73.638,11.782,73.638-5.275,73.638-11.782" transform="translate(-0.181 -105.447)" fill="#c7e9f9"/>
    <path id="パス_47081" data-name="パス 47081" d="M624.963,418.782c0-6.507-32.969-11.782-73.638-11.782s-73.638,5.275-73.638,11.782,32.969,11.782,73.638,11.782,73.638-5.275,73.638-11.782" transform="translate(-125.927 -107.293)" fill="#c7e9f9"/>
    <path id="パス_47082" data-name="パス 47082" d="M278.323,262.9c.207,1.943,2.958,1.873,6.066,1.407s2.3.352,6.675.267,5.828-1.578,6.019-2.209c.171-.56-1.949-.957-4.219-1.43-.285-.058-.571-.121-.858-.183-2.56-.561-4.3-2.4-6.53-3.991-2.11-1.5-3.531-8.39-3.531-8.39l-6.213-.036s1.953,6.228,2.969,8.393c.6,1.274-.039,2.91-.239,4.137a7.586,7.586,0,0,0-.139,2.034" transform="translate(-72.688 -65.465)" fill="#ffb07b"/>
    <path id="パス_47083" data-name="パス 47083" d="M285.307,268.79c3.108-.465,2.3.351,6.675.267s5.828-1.578,6.018-2.209c.17-.56-1.949-.957-4.218-1.429l-.026.042a12.247,12.247,0,0,1-6.372,1.361c-2.942-.2-5.974-1.32-8-1.473a7.623,7.623,0,0,0-.139,2.035c.208,1.943,2.958,1.873,6.066,1.407" transform="translate(-73.607 -69.951)" fill="#365da4"/>
    <path id="パス_47084" data-name="パス 47084" d="M213.285,261.882c.135,1.95,2.885,1.984,6.009,1.635s2.289.437,6.66.518,5.884-1.358,6.1-1.982c.191-.553-1.912-1.029-4.161-1.588-.284-.069-.567-.142-.851-.215-2.536-.657-4.209-2.565-6.375-4.233-2.051-1.582-.364-8.14-.364-8.14l-4.714-2.227s-.649,6.76-1,10.179a39.283,39.283,0,0,1-1.087,4.024,7.648,7.648,0,0,0-.216,2.027" transform="translate(-56.223 -64.758)" fill="#ffb07b"/>
    <path id="パス_47085" data-name="パス 47085" d="M219.294,268.6c3.123-.348,2.29.438,6.661.518s5.884-1.358,6.1-1.982c.191-.553-1.912-1.029-4.162-1.588l-.027.041a12.239,12.239,0,0,1-6.418,1.12c-2.932-.307-5.92-1.545-7.943-1.773a7.648,7.648,0,0,0-.216,2.027c.135,1.951,2.886,1.984,6.009,1.635" transform="translate(-56.223 -69.843)" fill="#365da4"/>
    <path id="パス_47086" data-name="パス 47086" d="M224.162,134.484s-1.306,6.323-2.614,38.388a103.494,103.494,0,0,0-4.185,13.2c-1.759,7.26-3,37.551-3,37.551a3.658,3.658,0,0,0,2.831,1.139,6.158,6.158,0,0,0,3.093-.658s12.231-39.674,18.185-55.077,9.442-37.4,9.442-37.4Z" transform="translate(-56.51 -34.699)" fill="#2b478b"/>
    <path id="パス_47087" data-name="パス 47087" d="M247.646,135.28s.965,6.384,10.839,36.918a103.463,103.463,0,0,0,.644,13.829c.862,7.42,10.858,36.633,10.858,36.633a6.139,6.139,0,0,0,3.319-.065,10.476,10.476,0,0,0,3.3-1.6s-3.831-41.754-3.58-58.265-4.09-38.352-4.09-38.352Z" transform="translate(-65.284 -32.788)" fill="#2b478b"/>
    <path id="パス_47088" data-name="パス 47088" d="M259.781,18.39a8.943,8.943,0,0,0-4.791-1.167,2.259,2.259,0,0,1,1.044-.433,7.5,7.5,0,0,0-2.711.564c-11.3-5.014-13.954,11.854-13.909,15.806s-.154,8.488-6.08,11.734c-11.66,6.387-2.722,19-2.722,19-2.1,6.023,5.672,13.4,5.672,13.4-.132-3.2,14.549-23.575,22.465-28.224,2-2.653,2.909-7.473,2.978-7.852a20.989,20.989,0,0,1-1.929,7.142c6.789-5.649,4.086-27.363-.016-29.974" transform="translate(-59.93 -4.331)" fill="#064995"/>
    <path id="パス_47089" data-name="パス 47089" d="M264.165,53.728c.04.018-3.7,1.961-6.52,1.191-2.649-.722-4.379-4.157-4.343-4.165,1.122-.222,1.446-1.764,1.422-8.387l.507.1,8.22,1.629.306.06s-.2,2.683-.2,5.211c0,.535.006,1.062.027,1.555.055,1.468.219,2.636.582,2.806" transform="translate(-66.775 -11.169)" fill="#ffb07b"/>
    <path id="パス_47090" data-name="パス 47090" d="M264.165,49.544c0,.535.006,1.062.026,1.555-4.781-.193-7.538-5.661-8.578-8.059l8.447,1.233.306.06s-.2,2.683-.2,5.211" transform="translate(-67.384 -11.346)" fill="#ea8e50"/>
    <path id="パス_47091" data-name="パス 47091" d="M253.589,34.971a25.078,25.078,0,0,1-3.1-7.328c-.429-2.412.8-11.352,9.784-10.064a12.2,12.2,0,0,1,5.061,1.913c1.951,1.317,4.766,4.161,1.619,11.963l-.818,2.636Z" transform="translate(-66.014 -4.601)" fill="#064995"/>
    <path id="パス_47092" data-name="パス 47092" d="M264.52,43.146s-11.192-1.479-10.164-8.436.277-11.831,7.467-11.181,8.183,3.51,8.4,5.915-2.768,13.907-5.706,13.7" transform="translate(-67.035 -6.187)" fill="#ffb07b"/>
    <path id="パス_47093" data-name="パス 47093" d="M265.781,23.67s-4.272,7.7-9.145,8.211-6.719-1.053-6.719-1.053a13.433,13.433,0,0,0,5.515-7.2s8.621-4.185,10.349.043" transform="translate(-65.883 -5.742)" fill="#064995"/>
    <path id="パス_47094" data-name="パス 47094" d="M270.3,24.716s2.012,2.162,2.3,4.015,0,5.538,1.081,5.572c0,0,3.13-5.2,1.009-8.726-2.249-3.736-4.394-.862-4.394-.862" transform="translate(-71.255 -6.237)" fill="#064995"/>
    <path id="パス_47095" data-name="パス 47095" d="M326.935,141.212c-2.348-4.974-8.876-9.089-14.376-9.091a16.333,16.333,0,0,0-10.416,3.643,2.742,2.742,0,0,1-4.406-1.559l-4.814-22.367a6.04,6.04,0,0,0-7.176-4.634l-77.9,16.765a5.9,5.9,0,0,0-4.527,7.012l16.747,77.812a6.123,6.123,0,0,0,4.135,4.55l-1.023.289H226.2l.024,0a6.174,6.174,0,0,0,1.119-.135l1.7-.365,19.992-4.3a3.773,3.773,0,0,0,2.06-6.161,16.2,16.2,0,1,1,27.136-4.295,2.577,2.577,0,0,0,.76,3.036l-1.166.568h2.7a2.643,2.643,0,0,0,.624-.058l23.872-5.138a6.043,6.043,0,0,0,4.636-7.18l-4.784-22.229a2.83,2.83,0,0,1,3.471-3.336,16.218,16.218,0,0,0,18.59-22.82" transform="translate(-53.564 -28.225)" fill="#5cb413"/>
    <path id="パス_47096" data-name="パス 47096" d="M308.824,132.121a16.333,16.333,0,0,0-10.417,3.643A2.742,2.742,0,0,1,294,134.2l-4.814-22.367a6.04,6.04,0,0,0-7.176-4.634l-77.9,16.765a5.9,5.9,0,0,0-4.527,7.012l16.746,77.812a6.129,6.129,0,0,0,7.281,4.7l21.688-4.668a3.773,3.773,0,0,0,2.06-6.161,16.2,16.2,0,1,1,27.136-4.3,2.585,2.585,0,0,0,2.919,3.545l23.872-5.137a6.044,6.044,0,0,0,4.636-7.18l-4.784-22.229a2.83,2.83,0,0,1,3.471-3.336,16.218,16.218,0,0,0,18.59-22.82c-2.348-4.974-8.876-9.089-14.376-9.091" transform="translate(-52.579 -28.225)" fill="#5add42"/>
    <path id="パス_47097" data-name="パス 47097" d="M309.273,100.918s4.859.8,6.132,3.956-.5,5.3-1.189,5.292a3.055,3.055,0,0,1-2.61-2.152c-.614-1.638-2.334-7.1-2.334-7.1" transform="translate(-81.53 -26.604)" fill="#ffb07b"/>
    <path id="パス_47098" data-name="パス 47098" d="M218.437,120.065s5.454-.007,7.416,3.217.405,5.884-.344,6a3.383,3.383,0,0,1-3.24-1.881c-.968-1.68-3.832-7.335-3.832-7.335" transform="translate(-57.584 -31.651)" fill="#ffb07b"/>
    <path id="パス_47099" data-name="パス 47099" d="M283.083,92.147c-.483-.1-2.6-.352-5.287-.775-4.951-.777-11.856-2.144-14.172-4.281-.627-.58-2.089-3.772-3.608-7.432A69.4,69.4,0,0,0,258.8,98.7l-33.471,7.2c2.87-5.8,7.312-13,6.479-18.818-.308-2.158-1.491-5.12-1.933-8.447-.038-.286-.068-.572-.094-.863-4.694,3.865-10.116,8.127-10.247,8.98-.216,1.429,3.439,17.253,3.439,17.253-.908,2.089-4.849,1.649-4.849,1.649-3.694-2.638-9.127-17.584-8.69-20.9s13.9-22.181,17.162-26.692c3.22-4.457,14.975-4.345,15.258-4.343h.007c9.348,5.613,10.191.948,10.191.948s8.435,1.6,9.884,4.094,7.806,21.387,8.256,22.052c.941,1.392,16.308,6.959,16.583,8.571s-2.316,3.041-3.694,2.749" transform="translate(-55.205 -14.165)" fill="#80bdcc"/>
    <path id="パス_47100" data-name="パス 47100" d="M242.7,112.016l-11.672,2.5c2.906-5.786,6.726-12.992,5.89-18.778-.312-2.16-1.013-4.717-1.35-8.059-.033-.322-.088-1.292-.088-1.292s8.264,6.5,8.409,13.544a70.331,70.331,0,0,1-1.19,12.083" transform="translate(-60.904 -22.774)" fill="#5f9aa8"/>
    <path id="パス_47101" data-name="パス 47101" d="M296.222,98.676c-5.012-.778-12-2.147-14.345-4.284-.636-.58-2.116-3.775-3.653-7.44,0,0-.539-5.89,1-5.67s3.8,10.666,5.421,11.326c1.447.592,9.446,3.662,11.577,6.068" transform="translate(-73.321 -21.426)" fill="#5f9aa8"/>
    <path id="パス_47102" data-name="パス 47102" d="M632.29,406.986c-.706,2.381-3.968,3.968-4.409,6.878a6.315,6.315,0,0,1-1.416,3.281H616.309c.1-.559.547-1.161,1.868-1.45,2.82-.616,3.884-4.035,3.708-7.209-.073-1.331-.039-2.848.027-4.161.089-1.817.239-3.246.239-3.246l5.995-1.41.63.81.6.777s3.613,3.35,2.909,5.73" transform="translate(-162.471 -105.36)" fill="#2c71b3"/>
    <path id="パス_47103" data-name="パス 47103" d="M566.437,419.928H545.891a4.12,4.12,0,0,1,2.59-1.289c3.162-.513,8.638-2.349,9.859-6.39.04-.13.076-.263.105-.4.969-4.32,8.024,1.323,8.024,1.323s.022.173.054.468a22.006,22.006,0,0,1-.086,6.287" transform="translate(-143.907 -108.142)" fill="#2c71b3"/>
    <path id="パス_47104" data-name="パス 47104" d="M550.548,267.3s1.071,13.365,2.331,29.431c1.711,21.825,3.769,48.632,3.973,53.71.352,8.818,1.764,22.924,1.764,22.924s3.348,3.351,10.051,1.939a230.789,230.789,0,0,0,7.678-41.442c.027-.349.053-.7.079-1.053,1.587-21.689,4.055-67.36,4.055-67.36Z" transform="translate(-145.135 -69.978)" fill="#35488b"/>
    <path id="パス_47105" data-name="パス 47105" d="M550.548,267.3s1.071,13.365,2.331,29.431l23.466,37.131c.027-.349.053-.7.079-1.053,1.587-21.689,4.055-67.36,4.055-67.36Z" transform="translate(-145.135 -69.978)" fill="#2c3a64"/>
    <path id="パス_47106" data-name="パス 47106" d="M557.192,267s19.308,48.4,32,71.151,16.664,29.1,16.664,29.1,7.274-2.909,7.935-4.893c0,0-4.854-43.915-13.357-54.62-4.8-6.049-10.447-24.2-10.712-30.55s-1.719-18.912-1.719-18.912Z" transform="translate(-146.886 -68.084)" fill="#35488b"/>
    <path id="パス_47107" data-name="パス 47107" d="M568.816,162.939a56.719,56.719,0,0,1-.885-8.074l9.8-7.895c-.364,10.856,6.593,16.076,6.593,16.076s-13.055,6.426-20.6,4.046a18.067,18.067,0,0,1,5.1-4.154" transform="translate(-148.607 -38.744)" fill="#935c2f"/>
    <path id="パス_47108" data-name="パス 47108" d="M565.433,150.068s12.463,2.071,13.633-5.711,3.566-12.755-4.342-14.406-9.9,1.085-10.927,3.588-1.577,15.79,1.635,16.529" transform="translate(-148.418 -34.125)" fill="#a16d3c"/>
    <path id="パス_47109" data-name="パス 47109" d="M502.255,177.626l-2.652-1.643a6.707,6.707,0,0,0-8.96-1.849s-2.239,1.426-.736,2.622,1.1.52,3.179,2.251,4.774,2.349,6.51,1.395l2.228-.21Z" transform="translate(-129.012 -45.643)" fill="#a16d3c"/>
    <path id="パス_47110" data-name="パス 47110" d="M502.48,178.037c.683-2.138,1.008-2.327,1.008-2.327s21.458,2.535,23.481,2.686,30.117-5.639,30.117-5.639l13.265,16.108s-39.111,1.475-44.229,1c-8.459-.793-23.8-8.668-23.8-8.668a6.253,6.253,0,0,1,.155-3.155" transform="translate(-132.387 -45.542)" fill="#8ac624"/>
    <path id="パス_47111" data-name="パス 47111" d="M587.339,236.081c.038.831-1.675,1.744-2.419,2.078a52.1,52.1,0,0,1-16.712,4.823c-6.991.717-15.253-.856-18.086-.818a1.218,1.218,0,0,1-.794-.3c-.189-.152-.34-8.691-.189-19.458,0-.416,0-.871.038-1.286v-.15c.011-1.122.029-2.261.052-3.411.071-3.147.189-6.378.326-9.588.2-4.733.486-9.384.876-13.505a78.051,78.051,0,0,1,1.581-10.675,26.052,26.052,0,0,1,8.162-13.038l2.606-2.3a12.369,12.369,0,0,0,8.124-.982c2.985-1.474,6.235-3.062,6.763-2.683,4.029,3.01,6.74,9.846,8.13,18.533a96.027,96.027,0,0,1,1.093,15.326c-.009,2.087-.073,4.2-.194,6.342a208.484,208.484,0,0,0,.414,27.2c.114,1.663.2,2.985.23,3.9" transform="translate(-144.747 -43.425)" fill="#98dd42"/>
    <path id="パス_47112" data-name="パス 47112" d="M475.829,113.082,397.01,100.564a6.144,6.144,0,0,0-7.032,5.1l-3.489,21.968a25.888,25.888,0,0,0,.1,3.877l2.841.423a3.644,3.644,0,0,0,.493.074,3.753,3.753,0,0,0,1.585-.216,16.244,16.244,0,1,1-5.81,26.927,2.56,2.56,0,0,0-1.538-.726l-2.972-.446-3.7,26.8a6.06,6.06,0,0,0,5.034,6.935l22.516,3.576a2.837,2.837,0,0,1,1.862,4.454A16.261,16.261,0,0,0,421.5,224.956c5.5-.395,11.712-5.007,13.706-10.15a16.379,16.379,0,0,0,.366-11.059,2.749,2.749,0,0,1,3.053-3.555l22.656,3.6a6.057,6.057,0,0,0,6.932-5.032l12.532-78.9a5.918,5.918,0,0,0-4.916-6.773" transform="translate(-99.492 -26.49)" fill="#4a75cb"/>
    <path id="パス_47113" data-name="パス 47113" d="M578.008,189.653s-6.042,28.194-28.724,34.475c.069-3.147.188-6.378.324-9.588.205-4.733.487-9.384.876-13.505a7.875,7.875,0,0,1,1.132-.487c7.7-2.538,26.392-10.895,26.392-10.895" transform="translate(-144.801 -49.996)" fill="#8ac624"/>
    <path id="パス_47114" data-name="パス 47114" d="M431.25,214.209a16.375,16.375,0,0,0,.366-11.059,2.749,2.749,0,0,1,3.053-3.555l22.656,3.6a6.058,6.058,0,0,0,6.932-5.032l12.531-78.9a5.918,5.918,0,0,0-4.916-6.773L393.053,99.967a6.143,6.143,0,0,0-7.031,5.1l-3.489,21.968a3.783,3.783,0,0,0,5.016,4.157,16.244,16.244,0,1,1-5.81,26.927,2.592,2.592,0,0,0-4.372,1.446l-3.84,24.181a6.059,6.059,0,0,0,5.034,6.935l22.516,3.576a2.837,2.837,0,0,1,1.863,4.454,16.261,16.261,0,0,0,14.605,25.644c5.5-.394,11.713-5.007,13.706-10.15" transform="translate(-98.449 -26.333)" fill="#699dee"/>
    <path id="パス_47115" data-name="パス 47115" d="M501.681,202.558l-3.241-.536a8,8,0,0,0-10.133-2.347s-2.554,1.429-.865,2.765,1.239.6,3.578,2.533,5.384,2.7,7.363,1.76l2.527-.132Z" transform="translate(-128.346 -52.397)" fill="#a16d3c"/>
    <path id="パス_47116" data-name="パス 47116" d="M503.619,196.754c.1-2.384,1.375-2.639,1.375-2.639s24.548-1.624,26.666-2.034,21.669-16.611,21.669-16.611,7.561-6.8,12.859-4.5c4.6,1.993,6.044,5.923,6.276,9.539A10.5,10.5,0,0,1,566.4,190.67c-8.781,4.1-26.342,12.153-30.34,12.847-8.9,1.546-31.779-3.409-31.779-3.409a7.516,7.516,0,0,1-.66-3.353" transform="translate(-132.762 -44.946)" fill="#98dd42"/>
    <path id="パス_47117" data-name="パス 47117" d="M563.054,131.416a7.272,7.272,0,0,1-1.759-9.58,19.258,19.258,0,0,0,9.632,0c5.652-1.319,10.711.55,11.37,2.529,0,0,2.2.88,2.42,4.178s-6.4,13.69-6.4,13.69-1.412-1.759-1.027-2.968,1.594-3.9.11-3.9-1.979,2.2-2.584,1.32.495-4.563-1.264-5.169-8.522,1.015-10.5-.1" transform="translate(-147.673 -32.002)" fill="#2c3a7e"/>
    <path id="パス_47118" data-name="パス 47118" d="M291.8,380.258,269.523,279.1h6.133a2.651,2.651,0,0,0,2.643-2.643v-3.417a2.651,2.651,0,0,0-2.643-2.643h-77.8a2.651,2.651,0,0,0-2.644,2.643v3.417a2.651,2.651,0,0,0,2.644,2.643h7.9l-22.281,101.16a2.525,2.525,0,1,0,4.931,1.093L210.924,279.1h53.427l22.521,102.253a2.525,2.525,0,1,0,4.931-1.093" transform="translate(-48.351 -71.281)" fill="#aeeaf4"/>
    <path id="パス_47119" data-name="パス 47119" d="M453.914,298.736H431.671a3.783,3.783,0,0,0-3.319,5.605c1.345,2.433-3.385,23.512-13.349,24.062a16.244,16.244,0,0,1-14.155-25.577,2.592,2.592,0,0,0-2.113-4.091H374.25a6.059,6.059,0,0,0-6.059,6.059s-2.219,26.279-4.106,25.337a16.146,16.146,0,0,0-6.4-1.682h-.021c-.273-.013-.548-.022-.825-.022s-4.308-.068-4.308-.068l-.611,32.474,3.5.038c3.327-.1,6.216-.411,8.785-1.72a2.749,2.749,0,0,1,3.99,2.457v22.94a6.057,6.057,0,0,0,6.057,6.057h79.894a5.918,5.918,0,0,0,5.918-5.918V304.88a6.144,6.144,0,0,0-6.144-6.144" transform="translate(-92.772 -78.752)" fill="#5cb413"/>
    <path id="パス_47120" data-name="パス 47120" d="M343.318,360.43a16.38,16.38,0,0,0,10.979-1.373,2.749,2.749,0,0,1,3.99,2.457v22.94a6.057,6.057,0,0,0,6.057,6.057h79.894a5.918,5.918,0,0,0,5.918-5.918V304.787a6.144,6.144,0,0,0-6.144-6.144H421.767a3.783,3.783,0,0,0-3.319,5.605,16.244,16.244,0,1,1-27.5-1.515,2.592,2.592,0,0,0-2.114-4.091H364.346a6.059,6.059,0,0,0-6.06,6.059v22.8a2.838,2.838,0,0,1-4.107,2.538,16.261,16.261,0,0,0-23.036,18.447c1.253,5.37,6.783,10.782,12.174,11.944" transform="translate(-87.175 -78.728)" fill="#5add42"/>
    <path id="パス_47121" data-name="パス 47121" d="M102.485,266.436l2.124,1.725s5.812-2.084,7.124,4.823c0,0,.349,2.943-1.515,2.948s-1.1-.322-3.735-.244-4.828-1.314-5.216-3.457L100,270.416Z" transform="translate(-26.363 -70.237)" fill="#ea8e50"/>
    <path id="パス_47122" data-name="パス 47122" d="M80.431,255.553c1.7-1.77,1.558-3.078,1.558-3.078S62.361,236.405,60.371,235.1c-1.356-.892-15.812-13.707-22.568-21.519-3.352-3.875-7.5-2.371-12.253-1.008l-3.911,1.122c-4.723,1.356-5.952,7.962-2.077,11.172,10.915,9.04,29.072,19.209,32.469,21.345,8.434,5.306,24.942,11.609,24.942,11.609a10.46,10.46,0,0,0,3.458-2.264" transform="translate(-4.55 -55.651)" fill="#1e3d70"/>
    <path id="パス_47123" data-name="パス 47123" d="M132,405.313A14.8,14.8,0,0,0,144.057,407s5.884-1.34,7.175,1.594c0,0-9.025,4.585-11.309,5.839a27.4,27.4,0,0,0-4.787,3.59,2.367,2.367,0,0,1-3.427-.264c-.4-.488-.851-1.07-1.349-1.745-1.391-1.885-4.634-7.977-4.634-7.977Z" transform="translate(-33.144 -106.848)" fill="#233862"/>
    <path id="パス_47124" data-name="パス 47124" d="M110.971,372.607s-2.9,6.688-9.6,5.459c0,0-13.662-11.283-23.033-23a52.063,52.063,0,0,1-7.158-11.185C64.97,329.489,48.2,308.029,37.532,297.154L64.213,287.5s8.546,17.192,19.917,38.308c8.2,15.214,17.854,32.468,26.84,46.8" transform="translate(-9.894 -75.791)" fill="#327d8b"/>
    <path id="パス_47125" data-name="パス 47125" d="M84.13,325.809l-5.789,29.253a52.059,52.059,0,0,1-7.158-11.184C64.97,329.49,48.2,308.03,37.532,297.154L64.213,287.5s8.546,17.192,19.917,38.307" transform="translate(-9.894 -75.791)" fill="#234c62"/>
    <path id="パス_47126" data-name="パス 47126" d="M67.665,409.418s-.291,5.337,6.178,6.049c0,0,3.7.019,3.708,3.416l-18.8.06a14.63,14.63,0,0,1-.678-4.3c-.1-2.253,2.184-8.145,2.184-8.145Z" transform="translate(-15.307 -107.159)" fill="#233862"/>
    <path id="パス_47127" data-name="パス 47127" d="M52.6,287.077s11.886,13.061,19.432,36.591c4.1,12.8-7.524,44.99-9.792,56.173,0,0-7.8.662-13.136-1.4,0,0-.406-23.1,2.714-40.9,1.746-9.964-15.65-21.309-23.252-39.312-5.171-12.248,1.12-12.04,8.851-12.334Z" transform="translate(-7.034 -75.367)" fill="#327d8b"/>
    <path id="パス_47128" data-name="パス 47128" d="M36.034,202.6c-6.614,3.734-20.152.29-20.152.29s5.5-6.286,3-16.408l5.192,2.637,5.577,2.832a46.417,46.417,0,0,1,.611,5c.064.827.122,1.75.16,2.76a17.331,17.331,0,0,1,5.611,2.89" transform="translate(-4.187 -49.161)" fill="#ffb07b"/>
    <path id="パス_47129" data-name="パス 47129" d="M58.5,264.832c0,1.163-1.339,1.719-1.623,1.775-2.667.487-10.115,3.384-16.824,4.049A53.793,53.793,0,0,1,23.4,269.529c-.763-.154-2.555-.636-2.682-1.367-.159-.8-22.225-44.986-5.071-63.966.4-.445,3.789.357,6.886,1.092a12.714,12.714,0,0,0,7.826-.64l2.9,1.528c3.566,1.988,10.314,9.048,11.1,14.588.4,2.818,2.013,4.9,2.479,7.382q.26,1.376.529,2.685.528,2.568,1.087,4.89c1.009,4.19,2.074,7.8,3.119,10.913,1.113,3.309,2.2,6.06,3.18,8.362,1.264,2.985,2.334,5.217,3,6.925a8.536,8.536,0,0,1,.742,2.911" transform="translate(-2.403 -53.796)" fill="#287096"/>
    <path id="パス_47130" data-name="パス 47130" d="M60.157,267.289c-31.15-14.676-41.938-42.857-41.938-42.857s25.309,9.337,31.552,11.767q.527,2.568,1.086,4.89c1.009,4.19,2.074,7.8,3.12,10.913,1.113,3.309,2.2,6.06,3.179,8.362,1.265,2.985,2.334,5.217,3,6.925" transform="translate(-4.803 -59.164)" fill="#1e5770"/>
    <path id="パス_47131" data-name="パス 47131" d="M154.721,206.321l-6.672-21.158a3.783,3.783,0,0,0-4.631-2.5h-.005c-.1.029-.2.062-.293.1l-2.339.782s-3.663,3.772-6.292,4.532c-8.081,2.339-15.752-1.969-18.7-9.848-3.279-8.764.525-18.387,9.334-21.166,3.015-.951,8.946.821,8.946.821l2.381-.792a2.583,2.583,0,0,0,1.719-3.253l-7.344-23.288a6.043,6.043,0,0,0-7.581-3.946l-21.685,6.839a2.83,2.83,0,0,1-3.646-3.144,16.217,16.217,0,0,0-24.457-16.378c-4.733,2.8-8.221,9.686-7.709,15.161a16.334,16.334,0,0,0,4.6,10.032,2.742,2.742,0,0,1-1.141,4.532l-21.819,6.881a6.04,6.04,0,0,0-3.944,7.577l23.965,75.992a5.9,5.9,0,0,0,7.4,3.853l75.909-23.939a6.128,6.128,0,0,0,4-7.687" transform="translate(-11.378 -29.408)" fill="#4a75cb"/>
    <path id="パス_47132" data-name="パス 47132" d="M62.61,130.125a16.332,16.332,0,0,0,4.6,10.031,2.742,2.742,0,0,1-1.141,4.532L44.25,151.569a6.042,6.042,0,0,0-3.945,7.578L64.271,235.14a5.9,5.9,0,0,0,7.4,3.853l75.909-23.94a6.128,6.128,0,0,0,4-7.687l-6.672-21.157a3.773,3.773,0,0,0-6.327-1.476,16.2,16.2,0,1,1-6.81-26.617,2.585,2.585,0,0,0,3.257-3.237l-7.345-23.288a6.043,6.043,0,0,0-7.58-3.946l-21.685,6.84a2.83,2.83,0,0,1-3.646-3.145A16.218,16.218,0,0,0,70.32,114.963c-4.733,2.8-8.221,9.686-7.709,15.162" transform="translate(-10.551 -29.684)" fill="#699dee"/>
    <path id="パス_47133" data-name="パス 47133" d="M99.417,271.02l2.691.987s5.391-3.811,8.747,2.388c0,0,1.214,2.708-.708,3.3s-1.222.035-3.923.934-5.362.251-6.382-1.678L98.013,275.6Z" transform="translate(-25.838 -71.4)" fill="#ffb07b"/>
    <path id="パス_47134" data-name="パス 47134" d="M79.1,259.576c1-2.6,1.45-3.772,1.45-3.772s-20.34-16.579-22.413-18c-1.412-.968-15.471-11.478-22.326-19.668A14.346,14.346,0,0,0,21.866,213.3l-4.27.9a6.349,6.349,0,0,0-2.831,11.035c11.263,9.656,30.261,20.857,33.8,23.186C57.362,254.2,76.812,262.3,76.812,262.3a5.005,5.005,0,0,0,2.289-2.728" transform="translate(-3.307 -56.149)" fill="#287096"/>
    <path id="パス_47135" data-name="パス 47135" d="M31.569,197.9c-6.5.365-10.732-5-10.732-5a51.69,51.69,0,0,0,4.543-2.827l5.577,2.832a46.417,46.417,0,0,1,.611,5" transform="translate(-5.493 -50.104)" fill="#ea8e50"/>
    <path id="パス_47136" data-name="パス 47136" d="M32.154,185.693s-9.854,7.071-14.163.867-8.484-9.47-2.375-14.247,8.99-3.268,10.931-1.547,8.058,12.927,5.607,14.926" transform="translate(-3.307 -44.579)" fill="#ffb07b"/>
    <path id="パス_47137" data-name="パス 47137" d="M24.405,162.3a15.88,15.88,0,0,0-1.148-4.063s-.619,2.562-5.3,2.208-12.1.46-14.574,5.795c-.157.339-.3.689-.422,1.046a12.333,12.333,0,0,1-.555-2.954,9.1,9.1,0,0,0,0,5.169c-.013.083-.024.168-.037.252-1.032.873-1.9,3.588-1.9,3.588a3.255,3.255,0,0,1,1.75-1.556c-.021,4.151,1.662,8.208,4.616,9.417,4.32,1.767,4.286.419,8.631,3.3,0,0,1.166-1.446.371-2.418s-3.8-2.384-2.12-3.8,2.3.177,2.915-.8-2.473-3.8,1.5-6.447,6.624-6.36,6.271-8.745" transform="translate(-0.124 -41.714)" fill="#233862"/>
  </g>
</svg>
