<svg id="グループ_1487" data-name="グループ 1487" xmlns="http://www.w3.org/2000/svg" width="278.968" height="64" viewBox="0 0 278.968 64">
  <g id="グループ_1710" data-name="グループ 1710" transform="translate(-12.241 13.231)">
    <text id="_.cloud" data-name=".cloud" transform="translate(210.209 30)" fill="#2bacbe" font-size="30" font-family="Lato-Bold, Lato" font-weight="700"><tspan x="0" y="0">.cloud</tspan></text>
    <text id="GROWI" transform="translate(105.209 30)" fill="#254459" font-size="30" font-family="Lato-Bold, Lato" font-weight="700"><tspan x="0" y="0">GROWI</tspan></text>
  </g>
  <g id="GROWI_logo">
    <path id="パス_32" data-name="パス 32" d="M56.61,130.056H93.559l18.475-32H99.717L87.4,119.389H62.768Z" transform="translate(-38.135 -66.056)" fill="#254459"/>
    <g id="グループ_1707" data-name="グループ 1707">
      <path id="パス_33" data-name="パス 33" d="M75.48,76.035,81.638,65.37l18.475,0,18.475,0v0l6.158,10.665H87.8L81.651,86.677h-.029l-3.063-5.307Z" transform="translate(-50.847 -44.036)" fill="#2bacbe"/>
      <path id="パス_34" data-name="パス 34" d="M0,32,18.471,0,36.949,0H55.424l6.154,10.662-18.469,0H24.629l-18.475,32Z" fill="#2bacbe"/>
      <path id="パス_35" data-name="パス 35" d="M50.036,141.408,43.877,130.74,37.71,141.419l3.081,5.336,3.063,5.307h.029Z" transform="translate(-25.403 -88.073)" fill="#2bacbe"/>
    </g>
  </g>
</svg>
