<svg viewBox="0 0 488 104" fill="none" xmlns="http://www.w3.org/2000/svg">
<path d="M480.62 15.3201H466V88.4701H480.62V15.3201Z" fill="white"/>
<path d="M421.71 88.4701L407.67 41.4501L393.56 88.4701H379.85L358.46 15.3201H373.76L386.94 63.6901L400.85 18.3301H414.81L428.39 63.4801L441.26 15.3201H456.81L436.26 88.4701H421.71Z" fill="white"/>
<path d="M314.671 90.28C309.341 90.28 304.351 89.33 299.831 87.45C295.301 85.57 291.331 82.89 288.041 79.5C284.741 76.11 282.131 72.01 280.271 67.31C278.411 62.62 277.471 57.37 277.471 51.7C277.471 46.03 278.411 40.58 280.271 35.89C282.131 31.19 284.751 27.14 288.051 23.84C291.351 20.55 295.321 17.97 299.851 16.19C304.371 14.41 309.361 13.51 314.681 13.51C320.001 13.51 325.101 14.41 329.651 16.19C334.221 17.97 338.221 20.55 341.541 23.84C344.881 27.14 347.511 31.19 349.371 35.89C351.231 40.58 352.171 45.9 352.171 51.7C352.171 57.5 351.231 62.62 349.371 67.31C347.511 72 344.881 76.1 341.551 79.5C338.221 82.89 334.221 85.57 329.661 87.45C325.101 89.33 320.061 90.28 314.681 90.28H314.671ZM314.761 26.62C311.401 26.62 308.321 27.27 305.621 28.54C302.911 29.82 300.541 31.61 298.601 33.84C296.651 36.09 295.121 38.75 294.051 41.77C292.981 44.8 292.431 48.13 292.431 51.69C292.431 55.25 292.971 58.8 294.051 61.86C295.121 64.91 296.661 67.59 298.651 69.83C300.631 72.07 303.001 73.83 305.711 75.08C308.421 76.33 311.461 76.96 314.761 76.96C318.061 76.96 321.131 76.33 323.871 75.08C326.611 73.83 329.001 72.07 330.981 69.83C332.961 67.59 334.511 64.91 335.571 61.86C336.641 58.79 337.191 55.37 337.191 51.69C337.191 48.01 336.641 44.81 335.571 41.77C334.501 38.75 332.971 36.09 331.021 33.84C329.081 31.61 326.701 29.82 323.961 28.54C321.221 27.26 318.131 26.61 314.771 26.61L314.761 26.62Z" fill="white"/>
<path d="M251 88.4701L235.33 61.3101H226.81V88.4701H212.19V15.3201H237.9C241.31 15.3201 244.66 15.6801 247.87 16.4001C251.12 17.1301 254.05 18.3401 256.59 20.0101C259.16 21.7001 261.24 23.9401 262.79 26.6801C264.34 29.4301 265.13 34.5601 265.13 38.4701C265.13 45.6801 260.83 54.7601 250.21 59.3201L267.04 88.4801H251.01L251 88.4701ZM236.2 49.0101C237.96 49.0101 239.74 48.8801 241.49 48.6201C243.18 48.3701 244.75 47.9401 246.07 47.2101C248.83 45.6801 250.52 41.4301 250.52 38.4801C250.52 35.5301 249.06 32.0801 246.76 30.2001C245.09 28.8301 242.48 27.9401 237.31 27.9401H226.82V49.0101H236.2Z" fill="white"/>
<path d="M168.04 90.28C162.18 90.28 156.75 89.33 151.9 87.45C147.04 85.57 142.8 82.89 139.31 79.5C135.81 76.11 133.05 72 131.09 67.31C129.14 62.62 128.15 57.37 128.15 51.7C128.15 46.03 129.17 40.57 131.2 35.88C133.22 31.18 136.04 27.13 139.57 23.84C143.1 20.55 147.32 17.98 152.11 16.2C156.89 14.42 162.15 13.52 167.73 13.52C173.31 13.52 178.88 14.37 183.69 16.04C188.52 17.72 192.48 19.97 195.45 22.73L196.12 23.35L188.42 36.7C186.74 34 181.17 30.01 178.06 28.66C174.95 27.31 171.51 26.63 167.84 26.63C164.17 26.63 160.94 27.28 158.03 28.56C155.12 29.84 152.6 31.62 150.56 33.86C148.51 36.1 146.9 38.77 145.78 41.79C144.65 44.82 144.08 48.15 144.08 51.71C144.08 55.27 144.65 58.82 145.78 61.88C146.9 64.93 148.53 67.61 150.61 69.85C152.68 72.08 155.24 73.85 158.22 75.09C161.2 76.34 164.64 76.98 168.45 76.98C173.46 76.98 177.76 76.29 181.51 74.83V61.33H174.1L166.93 49.02H196.12V84.4C192.45 86.17 187.56 87.83 183.18 88.81C178.8 89.79 173.7 90.29 168.03 90.29L168.04 90.28Z" fill="white"/>
<path d="M34.9798 60.99L24.4998 79.15C24.1798 79.71 24.1798 80.4 24.4998 80.95L32.5698 94.93C32.8698 95.44 33.4798 95.79 34.0998 95.79H34.9798L45.0298 78.39L34.9798 60.99Z" fill="white"/>
<path d="M88.0705 53.54L74.2405 77.5C73.9805 77.94 73.5105 78.4 72.7105 78.4H45.0305L34.9805 95.79H82.7905C83.4105 95.79 83.9305 95.48 84.2505 94.93L108.15 53.53H88.0705V53.54Z" fill="white"/>
<path d="M108.58 52.8001C108.91 52.2401 108.93 51.6101 108.61 51.0501L100.53 37.0601C100.21 36.5001 99.6597 36.1401 99.0097 36.1401H50.3797C49.7297 36.1401 49.1397 36.4901 48.8097 37.0301L41.1797 50.2301L51.2297 67.6501L58.6197 54.8501C59.0897 54.0501 59.9497 53.5501 60.8697 53.5501H108.15L108.58 52.8101V52.8001Z" fill="white"/>
<path d="M44.17 25.41H93.8L84.28 8.91C83.96 8.35 83.41 8 82.76 8H34.13C33.48 8 32.89 8.32 32.56 8.88L8.24 50.99C7.92 51.55 7.92 52.23 8.24 52.79L17.78 69.31L42.6 26.28C42.92 25.72 43.52 25.39 44.17 25.39V25.41Z" fill="white"/>
</svg>
