<svg id="グループ_10112" data-name="グループ 10112" xmlns="http://www.w3.org/2000/svg" xmlns:xlink="http://www.w3.org/1999/xlink" width="276.355" height="64" viewBox="0 0 276.355 64">
  <defs>
    <clipPath id="clip-path">
      <rect id="長方形_3238" data-name="長方形 3238" width="276.356" height="64" fill="none"/>
    </clipPath>
  </defs>
  <g id="グループ_10111" data-name="グループ 10111">
    <g id="グループ_10110" data-name="グループ 10110" clip-path="url(#clip-path)">
      <path id="パス_47461" data-name="パス 47461" d="M199.258,41.191a2.329,2.329,0,0,1,.172-.885,2.158,2.158,0,0,1,.473-.719,2.292,2.292,0,0,1,1.62-.661,2.2,2.2,0,0,1,.892.18,2.36,2.36,0,0,1,.72.481,2.179,2.179,0,0,1,.488.719,2.236,2.236,0,0,1-1.208,2.962,2.288,2.288,0,0,1-.892.173,2.346,2.346,0,0,1-.9-.173,2.14,2.14,0,0,1-.72-.472,2.19,2.19,0,0,1-.473-.712,2.314,2.314,0,0,1-.172-.893" fill="#2bacbe"/>
      <path id="パス_47462" data-name="パス 47462" d="M217.948,31.1a1.916,1.916,0,0,1-.322.33.748.748,0,0,1-.458.12,1.014,1.014,0,0,1-.556-.173c-.18-.115-.394-.245-.644-.389a4.731,4.731,0,0,0-.893-.391,4.133,4.133,0,0,0-1.282-.172,3.9,3.9,0,0,0-1.71.353,3.231,3.231,0,0,0-1.223,1.011,4.555,4.555,0,0,0-.727,1.6,8.533,8.533,0,0,0-.241,2.123,8.326,8.326,0,0,0,.263,2.19,4.68,4.68,0,0,0,.758,1.612,3.247,3.247,0,0,0,1.2.99,3.626,3.626,0,0,0,1.59.338,3.922,3.922,0,0,0,1.433-.218,4.418,4.418,0,0,0,.922-.48c.25-.175.467-.334.653-.48a.988.988,0,0,1,.623-.217.752.752,0,0,1,.675.345l1.065,1.35a6.673,6.673,0,0,1-1.336,1.207,7.163,7.163,0,0,1-1.492.78,7.669,7.669,0,0,1-1.59.413,11.336,11.336,0,0,1-1.627.119,6.818,6.818,0,0,1-2.685-.532,6.321,6.321,0,0,1-2.206-1.553,7.407,7.407,0,0,1-1.492-2.5,9.646,9.646,0,0,1-.548-3.367,9.78,9.78,0,0,1,.488-3.142,7.109,7.109,0,0,1,1.432-2.5,6.588,6.588,0,0,1,2.341-1.659,8.077,8.077,0,0,1,3.209-.6,7.626,7.626,0,0,1,3.024.555,7.408,7.408,0,0,1,2.332,1.589Z" fill="#2bacbe"/>
      <rect id="長方形_3236" data-name="長方形 3236" width="3.705" height="22.29" transform="translate(221.428 20.941)" fill="#2bacbe"/>
      <path id="パス_47463" data-name="パス 47463" d="M235.647,27.6a8.385,8.385,0,0,1,3.112.555,6.81,6.81,0,0,1,2.4,1.575,6.919,6.919,0,0,1,1.538,2.49,10.308,10.308,0,0,1,0,6.585,7.07,7.07,0,0,1-1.538,2.505,6.711,6.711,0,0,1-2.4,1.59,8.385,8.385,0,0,1-3.112.555,8.493,8.493,0,0,1-3.135-.555,6.708,6.708,0,0,1-2.408-1.59,7.157,7.157,0,0,1-1.545-2.505,10.182,10.182,0,0,1,0-6.585,7,7,0,0,1,1.545-2.49,6.807,6.807,0,0,1,2.408-1.575,8.493,8.493,0,0,1,3.135-.555m0,13a3.258,3.258,0,0,0,2.842-1.29,6.468,6.468,0,0,0,.923-3.78,6.544,6.544,0,0,0-.923-3.8,3.243,3.243,0,0,0-2.842-1.3,3.309,3.309,0,0,0-2.888,1.313,6.465,6.465,0,0,0-.937,3.787,6.39,6.39,0,0,0,.937,3.772,3.324,3.324,0,0,0,2.888,1.3" fill="#2bacbe"/>
      <path id="パス_47464" data-name="パス 47464" d="M259.332,27.841v15.39h-2.265a.87.87,0,0,1-.929-.675l-.256-1.23a8.236,8.236,0,0,1-2.084,1.552,5.755,5.755,0,0,1-2.686.594,5.462,5.462,0,0,1-2.227-.429,4.454,4.454,0,0,1-1.628-1.207,5.292,5.292,0,0,1-1-1.852,7.81,7.81,0,0,1-.337-2.364V27.841h3.7V37.62a3.285,3.285,0,0,0,.653,2.183,2.415,2.415,0,0,0,1.957.773,3.922,3.922,0,0,0,1.8-.427,6.314,6.314,0,0,0,1.59-1.177V27.841Z" fill="#2bacbe"/>
      <path id="パス_47465" data-name="パス 47465" d="M276.356,20.941v22.29h-2.264a.872.872,0,0,1-.93-.675l-.316-1.485A7.762,7.762,0,0,1,270.71,42.8a5.78,5.78,0,0,1-2.813.66,5.012,5.012,0,0,1-4.117-2.047,7.282,7.282,0,0,1-1.171-2.468,12.5,12.5,0,0,1-.412-3.36,10.491,10.491,0,0,1,.465-3.18A7.719,7.719,0,0,1,264,29.851a6.228,6.228,0,0,1,2.085-1.687,6,6,0,0,1,2.729-.608,5.42,5.42,0,0,1,2.2.405,5.641,5.641,0,0,1,1.636,1.095V20.941Zm-3.7,10.83a3.66,3.66,0,0,0-1.372-1.08,4.054,4.054,0,0,0-1.6-.316,3.541,3.541,0,0,0-1.515.316,3.05,3.05,0,0,0-1.155.952,4.6,4.6,0,0,0-.735,1.62,9.256,9.256,0,0,0-.255,2.318,10.294,10.294,0,0,0,.217,2.288,4.493,4.493,0,0,0,.623,1.53,2.364,2.364,0,0,0,.99.854,3.15,3.15,0,0,0,1.305.263,3.792,3.792,0,0,0,1.965-.48,5.837,5.837,0,0,0,1.53-1.365Z" fill="#2bacbe"/>
      <path id="パス_47466" data-name="パス 47466" d="M113.263,32.356v8.775a11.489,11.489,0,0,1-3.518,1.778,13.786,13.786,0,0,1-4,.562,13.334,13.334,0,0,1-4.807-.825,10.76,10.76,0,0,1-3.676-2.295,10.053,10.053,0,0,1-2.347-3.51,11.77,11.77,0,0,1-.825-4.455,12.251,12.251,0,0,1,.795-4.485,9.88,9.88,0,0,1,5.805-5.79,12.836,12.836,0,0,1,4.68-.81,13.717,13.717,0,0,1,2.468.21,12.492,12.492,0,0,1,2.13.577,9.307,9.307,0,0,1,1.792.893,10.772,10.772,0,0,1,1.485,1.155l-1.155,1.83a1.107,1.107,0,0,1-.705.533,1.261,1.261,0,0,1-.945-.218l-.99-.57a6.358,6.358,0,0,0-1.1-.5,9,9,0,0,0-1.364-.345,10.065,10.065,0,0,0-1.748-.135,7.481,7.481,0,0,0-2.9.54,6.143,6.143,0,0,0-2.213,1.545,6.964,6.964,0,0,0-1.41,2.415,9.464,9.464,0,0,0-.495,3.15,9.645,9.645,0,0,0,.533,3.323,6.98,6.98,0,0,0,1.5,2.474,6.365,6.365,0,0,0,2.332,1.545,9.039,9.039,0,0,0,5.19.278,10.546,10.546,0,0,0,1.845-.69v-3.93h-2.73a.82.82,0,0,1-.607-.217.726.726,0,0,1-.218-.533v-2.28Z" fill="#254459"/>
      <path id="パス_47467" data-name="パス 47467" d="M134.1,43.231h-3.645a1.6,1.6,0,0,1-1.5-.809l-4.56-6.946a1.6,1.6,0,0,0-.563-.554,1.958,1.958,0,0,0-.907-.165H121.2v8.474h-4.035V21.541h6.615a13.747,13.747,0,0,1,3.787.458,7.229,7.229,0,0,1,2.6,1.282,5.02,5.02,0,0,1,1.493,1.973,6.48,6.48,0,0,1,.48,2.527,6.55,6.55,0,0,1-.323,2.07,5.978,5.978,0,0,1-.93,1.77,6.268,6.268,0,0,1-1.5,1.395,7.521,7.521,0,0,1-2.032.946,3.9,3.9,0,0,1,.72.532,3.781,3.781,0,0,1,.6.727Zm-10.38-11.37a6.242,6.242,0,0,0,1.987-.285,3.841,3.841,0,0,0,1.395-.787,3.166,3.166,0,0,0,.818-1.193,4.119,4.119,0,0,0,.27-1.515,3.077,3.077,0,0,0-1.088-2.534,5.194,5.194,0,0,0-3.322-.886H121.2v7.2Z" fill="#254459"/>
      <path id="パス_47468" data-name="パス 47468" d="M156.838,32.386a12.118,12.118,0,0,1-.788,4.417,10.366,10.366,0,0,1-2.227,3.518,10.12,10.12,0,0,1-3.465,2.317,12.531,12.531,0,0,1-8.985,0,10.2,10.2,0,0,1-3.473-2.317,10.417,10.417,0,0,1-2.242-3.518,12.671,12.671,0,0,1,0-8.835A10.427,10.427,0,0,1,137.9,24.45a10.216,10.216,0,0,1,3.473-2.317,11.689,11.689,0,0,1,4.485-.832,12.173,12.173,0,0,1,3.1.382,10.9,10.9,0,0,1,2.67,1.08,9.873,9.873,0,0,1,2.183,1.695,10.279,10.279,0,0,1,1.642,2.228,10.916,10.916,0,0,1,1.027,2.67,12.7,12.7,0,0,1,.353,3.03m-4.125,0a9.958,9.958,0,0,0-.48-3.2,6.871,6.871,0,0,0-1.365-2.407,5.835,5.835,0,0,0-2.153-1.515,8.036,8.036,0,0,0-5.714,0,5.9,5.9,0,0,0-2.161,1.515,6.806,6.806,0,0,0-1.372,2.407,10.923,10.923,0,0,0,0,6.405,6.735,6.735,0,0,0,1.372,2.4A5.947,5.947,0,0,0,143,39.495a8.022,8.022,0,0,0,5.714,0,5.883,5.883,0,0,0,2.153-1.506,6.8,6.8,0,0,0,1.365-2.4,9.956,9.956,0,0,0,.48-3.2" fill="#254459"/>
      <path id="パス_47469" data-name="パス 47469" d="M188.8,21.541l-6.735,21.69h-3.645l-4.74-14.82a10.088,10.088,0,0,1-.36-1.319c-.06.25-.121.484-.18.705s-.125.425-.2.614l-4.785,14.82H164.5l-6.72-21.69h3.375a1.486,1.486,0,0,1,.877.248,1.2,1.2,0,0,1,.473.667l3.69,12.976q.12.48.232,1.042t.233,1.177c.08-.42.166-.814.263-1.184s.2-.715.307-1.035l4.26-12.976a1.43,1.43,0,0,1,.472-.63,1.334,1.334,0,0,1,.862-.285h1.186a1.359,1.359,0,0,1,.855.256,1.564,1.564,0,0,1,.5.659l4.245,12.976a18.764,18.764,0,0,1,.57,2.144q.2-1.185.435-2.144l3.69-12.976a1.12,1.12,0,0,1,.457-.644,1.445,1.445,0,0,1,.878-.271Z" fill="#254459"/>
      <rect id="長方形_3237" data-name="長方形 3237" width="4.05" height="21.69" transform="translate(191.473 21.541)" fill="#254459"/>
    </g>
  </g>
  <path id="パス_47470" data-name="パス 47470" d="M61.582,32,49.266,53.334H24.633L18.476,64H55.424L73.9,32Z" fill="#254459"/>
  <path id="パス_47471" data-name="パス 47471" d="M24.633,32l6.158-10.665h36.95L73.9,32H36.953L30.8,42.641h-.029l-3.063-5.307Z" fill="#2bacbe"/>
  <path id="パス_47472" data-name="パス 47472" d="M18.471,0,0,32,6.155,42.662l18.475-32H61.578L55.424,0Z" fill="#2bacbe"/>
  <path id="パス_47473" data-name="パス 47473" d="M12.307,53.346l3.082,5.336,3.062,5.307h.029l6.153-10.654L18.475,42.668Z" fill="#2bacbe"/>
</svg>
