<svg xmlns="http://www.w3.org/2000/svg" xmlns:xlink="http://www.w3.org/1999/xlink" width="498" height="305.75" viewBox="0 0 498 305.75">
  <defs>
    <clipPath id="clip-path">
      <rect id="長方形_2764" data-name="長方形 2764" width="498" height="305.75" fill="none"/>
    </clipPath>
    <clipPath id="clip-path-3">
      <rect id="長方形_2746" data-name="長方形 2746" width="498" height="301.014" fill="none"/>
    </clipPath>
    <clipPath id="clip-path-4">
      <rect id="長方形_2747" data-name="長方形 2747" width="12.31" height="31.978" fill="none"/>
    </clipPath>
    <clipPath id="clip-path-5">
      <rect id="長方形_2748" data-name="長方形 2748" width="62.778" height="114.411" fill="none"/>
    </clipPath>
    <clipPath id="clip-path-6">
      <rect id="長方形_2749" data-name="長方形 2749" width="42.594" height="88.693" fill="none"/>
    </clipPath>
    <clipPath id="clip-path-7">
      <rect id="長方形_2750" data-name="長方形 2750" width="48.418" height="127.316" fill="none"/>
    </clipPath>
    <clipPath id="clip-path-8">
      <rect id="長方形_2751" data-name="長方形 2751" width="14.643" height="27.899" fill="none"/>
    </clipPath>
    <clipPath id="clip-path-9">
      <rect id="長方形_2752" data-name="長方形 2752" width="64.358" height="47.688" fill="none"/>
    </clipPath>
    <clipPath id="clip-path-10">
      <rect id="長方形_2753" data-name="長方形 2753" width="65.05" height="54.08" fill="none"/>
    </clipPath>
    <clipPath id="clip-path-11">
      <rect id="長方形_2754" data-name="長方形 2754" width="65.011" height="58.647" fill="none"/>
    </clipPath>
    <clipPath id="clip-path-12">
      <rect id="長方形_2755" data-name="長方形 2755" width="64.551" height="62.286" fill="none"/>
    </clipPath>
    <clipPath id="clip-path-13">
      <rect id="長方形_2756" data-name="長方形 2756" width="40.64" height="32.436" fill="none"/>
    </clipPath>
    <clipPath id="clip-path-14">
      <rect id="長方形_2757" data-name="長方形 2757" width="2.102" height="19.593" fill="none"/>
    </clipPath>
    <clipPath id="clip-path-15">
      <rect id="長方形_2758" data-name="長方形 2758" width="61.797" height="25.712" fill="none"/>
    </clipPath>
    <clipPath id="clip-path-16">
      <rect id="長方形_2760" data-name="長方形 2760" width="12.01" height="12.01" fill="none"/>
    </clipPath>
    <clipPath id="clip-path-17">
      <rect id="長方形_2761" data-name="長方形 2761" width="94.991" height="50.789" fill="none"/>
    </clipPath>
    <clipPath id="clip-path-18">
      <rect id="長方形_2762" data-name="長方形 2762" width="246.898" height="145.691" fill="none"/>
    </clipPath>
  </defs>
  <g id="merit-management" clip-path="url(#clip-path)">
    <g id="グループ_9691" data-name="グループ 9691">
      <g id="グループ_9690" data-name="グループ 9690" clip-path="url(#clip-path)">
        <g id="グループ_9644" data-name="グループ 9644" style="mix-blend-mode: multiply;isolation: isolate">
          <g id="グループ_9643" data-name="グループ 9643">
            <g id="グループ_9642" data-name="グループ 9642" clip-path="url(#clip-path-3)">
              <path id="パス_46936" data-name="パス 46936" d="M91.162,301.014h255.3c117.6,0,190.909-129.075,129.1-229.117C455.4,39.267,422.226,13.6,369.2,4.418,181.933-28,176.7,128.858,122.264,121.507a199.592,199.592,0,0,0-36.069-1.725C30.136,122.429-9.62,173.489,2.037,229.053c9.025,43.018,45.7,71.961,89.125,71.961" transform="translate(0 0)" fill="#defae7"/>
            </g>
          </g>
        </g>
        <path id="パス_46937" data-name="パス 46937" d="M94.856,121.862s.4,10.045,1.954,13.38c1.047,2.246-4.178,7.834-7.939,4.872-2.908-2.291-4.861-14.847-3.7-17.232a37.14,37.14,0,0,0,3.445-14.189Z" transform="translate(-18.551 -23.77)" fill="#f9af9a"/>
        <g id="グループ_9647" data-name="グループ 9647" transform="translate(65.941 84.845)" opacity="0.34" style="mix-blend-mode: multiply;isolation: isolate">
          <g id="グループ_9646" data-name="グループ 9646">
            <g id="グループ_9645" data-name="グループ 9645" clip-path="url(#clip-path-4)">
              <path id="パス_46938" data-name="パス 46938" d="M95.225,121.16s-.541,10.053,1.266,13.259c1.217,2.159-2.908,8.145-6.886,5.481-3.075-2.06-5.99-14.427-5.016-16.9a37.123,37.123,0,0,0,2.342-14.411Z" transform="translate(-84.397 -108.593)" fill="#f9af9a"/>
            </g>
          </g>
        </g>
        <path id="パス_46939" data-name="パス 46939" d="M129.786,383.115c0,2.9-28.649,5.259-63.99,5.259s-63.99-2.355-63.99-5.259,28.649-5.259,63.99-5.259,63.99,2.355,63.99,5.259" transform="translate(-0.395 -82.631)" fill="#c7e9f9"/>
        <path id="パス_46940" data-name="パス 46940" d="M37.085,347.081s-9.6,14.121-9.809,17.768,8.386,15.26,4.157,13.694-21.6-17.054-18.373-18.875,8.1-9.026,8.1-9.026Z" transform="translate(-2.769 -75.901)" fill="#f9af9a"/>
        <path id="パス_46941" data-name="パス 46941" d="M36.477,384.2c4.121.88.036-8.327-10.238-17.005A29.358,29.358,0,0,1,15.17,359c-1.069,1.659-3.939,3.082-5.34,6.315-1.506,3.478,18.764,17.2,26.648,18.887" transform="translate(-2.132 -78.507)" fill="#279162"/>
        <path id="パス_46942" data-name="パス 46942" d="M29.4,374.9s.906-1.693,6,.091" transform="translate(-6.43 -81.826)" fill="#fff"/>
        <path id="パス_46943" data-name="パス 46943" d="M32.933,377.183s.734-1.372,4.857.073" transform="translate(-7.202 -82.356)" fill="#fff"/>
        <path id="パス_46944" data-name="パス 46944" d="M35.283,379.049s.62-1.159,4.1.063" transform="translate(-7.716 -82.784)" fill="#fff"/>
        <path id="パス_46945" data-name="パス 46945" d="M81.92,240.881S77.98,273.988,71.37,283.1,29.939,333.18,29.939,333.18l-10.8-6.744s8.7-32.606,17.987-41.987c5.852-5.911,10.352-10.342,10.775-16.383,2.609-37.3,5.676-49.3,5.676-49.3Z" transform="translate(-4.186 -47.842)" fill="#0a5487"/>
        <g id="グループ_9650" data-name="グループ 9650" transform="translate(14.956 170.927)" opacity="0.2" style="mix-blend-mode: multiply;isolation: isolate">
          <g id="グループ_9649" data-name="グループ 9649">
            <g id="グループ_9648" data-name="グループ 9648" clip-path="url(#clip-path-5)">
              <path id="パス_46946" data-name="パス 46946" d="M81.92,240.881S77.98,273.988,71.37,283.1,29.939,333.18,29.939,333.18l-10.8-6.744s8.7-32.606,17.987-41.987c5.852-5.911,10.352-10.342,10.775-16.383,2.609-37.3,5.676-49.3,5.676-49.3Z" transform="translate(-19.142 -218.769)" fill="#0a5487"/>
            </g>
          </g>
        </g>
        <path id="パス_46947" data-name="パス 46947" d="M134.341,348.154s2.353,16.912,4.642,19.758,16.456,5.693,12.27,7.367-28.785-.05-27.613-3.566-.042-12.131-.042-12.131Z" transform="translate(-27.029 -76.136)" fill="#f9af9a"/>
        <g id="グループ_9653" data-name="グループ 9653" transform="translate(33.505 187.488)" opacity="0.15" style="mix-blend-mode: multiply;isolation: isolate">
          <g id="グループ_9652" data-name="グループ 9652">
            <g id="グループ_9651" data-name="グループ 9651" clip-path="url(#clip-path-6)">
              <path id="パス_46948" data-name="パス 46948" d="M85.478,256.7l-4.5-5.047L70.309,239.966s4.353,28.284,0,41.923-27.425,46.77-27.425,46.77C53.545,316.03,71.942,294.1,76.562,287.736c4.1-5.654,7.175-20.542,8.916-31.031" transform="translate(-42.883 -239.965)" fill="#0a5487"/>
            </g>
          </g>
        </g>
        <path id="パス_46949" data-name="パス 46949" d="M64.728,205.493s-7.536,8.731,4.284,27.127,30.156,33.6,30.045,40.224-4.693,8.548-1.239,21.607,12.466,38.358,12.466,38.358l13.263-.859s-5.411-57.024-5.843-64.351-20.33-54.708-20.33-54.708Z" transform="translate(-13.637 -44.938)" fill="#0a5487"/>
        <g id="グループ_9656" data-name="グループ 9656" transform="translate(48.724 160.555)" opacity="0.1" style="mix-blend-mode: multiply;isolation: isolate">
          <g id="グループ_9655" data-name="グループ 9655">
            <g id="グループ_9654" data-name="グループ 9654" clip-path="url(#clip-path-7)">
              <path id="パス_46950" data-name="パス 46950" d="M104.318,294.828c-1.539-13.42,3.273-14.665,4.335-21.2.337-2.075-1.045-5.277-3.371-9.312h0c6.33,2.346,7.893,2.151-.051-3.058a41.477,41.477,0,0,1-3.437-3.312c-.89-.791-1.153-1.484,2.07-.659,4.055,1.036,4.925.158-1.463-5.025A62.369,62.369,0,0,1,84.982,230.1c-.093-.2-.184-.4-.277-.6-4.236-9.316-4.58-15.927-3.748-20.324l-16.229-3.678s-7.536,8.731,4.284,27.127,30.156,33.6,30.045,40.224-4.693,8.548-1.239,21.607,12.466,38.358,12.466,38.358l.5-.029c-1.211-6.16-5.164-26.642-6.462-37.952" transform="translate(-62.361 -205.493)" fill="#0a5487"/>
            </g>
          </g>
        </g>
        <path id="パス_46951" data-name="パス 46951" d="M157.508,381.914c4.113-1.724-5-7.258-19.167-8.6a31.072,31.072,0,0,1-14.571-.438c.073,2.088-1.563,5.057-.827,8.714.791,3.932,26.7,3.619,34.565.32" transform="translate(-26.844 -81.543)" fill="#279162"/>
        <path id="パス_46952" data-name="パス 46952" d="M144.83,378.207s.624-3.167,5.265-3.542" transform="translate(-31.672 -81.934)" fill="#fff"/>
        <path id="パス_46953" data-name="パス 46953" d="M149.256,378.215s.594-2.869,4.266-2.869" transform="translate(-32.64 -82.083)" fill="#fff"/>
        <path id="パス_46954" data-name="パス 46954" d="M152.41,378.52s.478-2.253,3.6-2.424" transform="translate(-33.33 -82.247)" fill="#fff"/>
        <path id="パス_46955" data-name="パス 46955" d="M108.023,113.079a8.193,8.193,0,0,1-1.87-3.577c.553-7.965-6.056-12.5-11.832-10.842C89,100.194,84.864,110.157,87.4,117s4.788,9.044,11.3,7.865a10.534,10.534,0,0,0,7.886-9.684,2.319,2.319,0,0,0,1.7-1.421c.179-.323.025-.441-.26-.682" transform="translate(-18.945 -21.501)" fill="#f9af9a"/>
        <g id="グループ_9659" data-name="グループ 9659" transform="translate(67.688 75.877)" opacity="0.34" style="mix-blend-mode: multiply;isolation: isolate">
          <g id="グループ_9658" data-name="グループ 9658">
            <g id="グループ_9657" data-name="グループ 9657" clip-path="url(#clip-path-8)">
              <path id="パス_46956" data-name="パス 46956" d="M94.321,98.4a11.589,11.589,0,0,1,4.657-.369c-.718.149-2.808.931-2.118.651,9.122-3.713-7.2-1.59-4.416,14.865.728,4.315,3.389,10.647,8.834,10.06-8.5,3.643-11.4-.174-13.877-6.867-2.535-6.843,1.6-16.806,6.921-18.34" transform="translate(-86.634 -97.115)" fill="#f9af9a"/>
            </g>
          </g>
        </g>
        <path id="パス_46957" data-name="パス 46957" d="M76.807,129.475a1.871,1.871,0,0,1,3.136.64,12.7,12.7,0,0,0,4.892,6.054c4.5,3.082,5.6.218,5.6.218a136.945,136.945,0,0,1,8.759,40.868c1.092,19.732,1.242,27.052,1.242,27.052s-25.413,4.006-36.939-1.912c-6.176-3.171-5.9-3.285-2.179-29.4,3.835-26.915,9.251-36.755,15.492-43.521" transform="translate(-12.828 -28.182)" fill="#27c830"/>
        <path id="パス_46958" data-name="パス 46958" d="M169.3,188.85l.724-33.32a4.735,4.735,0,0,0-4.631-4.836l-33.89-.736-5.584-3.805-15.56-.338a4.734,4.734,0,0,0-4.837,4.77l-.352,36.955a6.84,6.84,0,0,0,6.691,6.9l50.451,1.1a6.841,6.841,0,0,0,6.987-6.69" transform="translate(-22.999 -31.887)" fill="#7d9257"/>
        <path id="パス_46959" data-name="パス 46959" d="M169.3,189.771l.724-33.32a4.735,4.735,0,0,0-4.631-4.836l-33.89-.736-5.584-3.8-15.56-.338a4.734,4.734,0,0,0-4.837,4.77l-.352,36.955a6.84,6.84,0,0,0,6.691,6.9l50.451,1.1a6.841,6.841,0,0,0,6.987-6.69" transform="translate(-22.999 -32.089)" fill="#99ba33"/>
        <g id="グループ_9662" data-name="グループ 9662" transform="translate(82.17 116.685)" opacity="0.28" style="mix-blend-mode: multiply;isolation: isolate">
          <g id="グループ_9661" data-name="グループ 9661">
            <g id="グループ_9660" data-name="グループ 9660" clip-path="url(#clip-path-9)">
              <path id="パス_46960" data-name="パス 46960" d="M162.539,186.549l-13.5-.294a44.254,44.254,0,0,1-42.672-36.91,4.71,4.71,0,0,0-.843,2.731l-.353,36.955a6.841,6.841,0,0,0,6.692,6.9l50.45,1.1a6.841,6.841,0,0,0,6.988-6.69l.227-10.483a6.841,6.841,0,0,1-6.987,6.69" transform="translate(-105.169 -149.345)" fill="#fed70a"/>
            </g>
          </g>
        </g>
        <path id="パス_46961" data-name="パス 46961" d="M163.064,198.577l4.687-33a4.735,4.735,0,0,0-4.021-5.354l-33.561-4.768-5.091-4.442-15.409-2.189a4.735,4.735,0,0,0-5.371,4.16l-4.752,36.65a6.841,6.841,0,0,0,5.822,7.652l49.96,7.1a6.841,6.841,0,0,0,7.735-5.811" transform="translate(-21.757 -32.536)" fill="#052a44"/>
        <path id="パス_46962" data-name="パス 46962" d="M163.064,199.268l4.687-33a4.735,4.735,0,0,0-4.021-5.354l-33.561-4.768-5.091-4.442-15.409-2.189a4.735,4.735,0,0,0-5.371,4.16l-4.752,36.65a6.842,6.842,0,0,0,5.822,7.653l49.96,7.1a6.841,6.841,0,0,0,7.735-5.811" transform="translate(-21.757 -32.687)" fill="#0a5487"/>
        <g id="グループ_9665" data-name="グループ 9665" transform="translate(77.732 118.38)" opacity="0.28" style="mix-blend-mode: multiply;isolation: isolate">
          <g id="グループ_9664" data-name="グループ 9664">
            <g id="グループ_9663" data-name="グループ 9663" clip-path="url(#clip-path-10)">
              <path id="パス_46963" data-name="パス 46963" d="M156.8,195.144l-13.371-1.9a44.253,44.253,0,0,1-37.971-41.731,4.709,4.709,0,0,0-1.163,2.612l-4.751,36.65a6.84,6.84,0,0,0,5.822,7.652l49.961,7.1a6.841,6.841,0,0,0,7.734-5.811l1.475-10.381a6.841,6.841,0,0,1-7.735,5.811" transform="translate(-99.489 -151.514)" fill="#fed70a"/>
            </g>
          </g>
        </g>
        <path id="パス_46964" data-name="パス 46964" d="M156.806,209.826l7.766-32.411a4.735,4.735,0,0,0-3.5-5.708l-32.964-7.9-4.651-4.9-15.135-3.627a4.736,4.736,0,0,0-5.739,3.637l-8.173,36.041a6.84,6.84,0,0,0,5.077,8.166l49.073,11.76a6.841,6.841,0,0,0,8.247-5.058" transform="translate(-20.609 -33.929)" fill="#7d9257"/>
        <path id="パス_46965" data-name="パス 46965" d="M156.806,210.976l7.766-32.411a4.735,4.735,0,0,0-3.5-5.708l-32.964-7.9-4.651-4.9-15.135-3.627a4.736,4.736,0,0,0-5.739,3.637L94.409,196.11a6.84,6.84,0,0,0,5.077,8.165l49.073,11.76a6.841,6.841,0,0,0,8.247-5.058" transform="translate(-20.609 -34.18)" fill="#99ba33"/>
        <g id="グループ_9668" data-name="グループ 9668" transform="translate(73.63 123.397)" opacity="0.28" style="mix-blend-mode: multiply;isolation: isolate">
          <g id="グループ_9667" data-name="グループ 9667">
            <g id="グループ_9666" data-name="グループ 9666" clip-path="url(#clip-path-11)">
              <path id="パス_46966" data-name="パス 46966" d="M151,206.2l-13.134-3.147a44.253,44.253,0,0,1-33.883-45.113,4.7,4.7,0,0,0-1.4,2.491l-8.174,36.041a6.841,6.841,0,0,0,5.077,8.165l49.074,11.76a6.84,6.84,0,0,0,8.246-5.058l2.443-10.2A6.84,6.84,0,0,1,151,206.2" transform="translate(-94.239 -157.935)" fill="#fed70a"/>
            </g>
          </g>
        </g>
        <path id="パス_46967" data-name="パス 46967" d="M153.6,217.549l10.418-31.657A4.735,4.735,0,0,0,161,179.914l-32.2-10.6-4.23-5.268-14.783-4.865a4.735,4.735,0,0,0-6.019,3.15L92.644,197.577a6.841,6.841,0,0,0,4.386,8.557l47.934,15.775a6.841,6.841,0,0,0,8.636-4.36" transform="translate(-20.19 -34.759)" fill="#1f756c"/>
        <path id="パス_46968" data-name="パス 46968" d="M153.484,218.7,163.9,187.042a4.736,4.736,0,0,0-3.017-5.978l-32.2-10.6-4.231-5.268-14.783-4.865a4.735,4.735,0,0,0-6.019,3.15L92.529,198.727a6.842,6.842,0,0,0,4.386,8.557l47.934,15.775a6.841,6.841,0,0,0,8.636-4.36" transform="translate(-20.165 -35.01)" fill="#299c90"/>
        <g id="グループ_9671" data-name="グループ 9671" transform="translate(72.045 126.107)" opacity="0.15" style="mix-blend-mode: multiply;isolation: isolate">
          <g id="グループ_9670" data-name="グループ 9670">
            <g id="グループ_9669" data-name="グループ 9669" clip-path="url(#clip-path-12)">
              <path id="パス_46969" data-name="パス 46969" d="M148.126,213.385,135.3,209.163A44.252,44.252,0,0,1,105.258,161.4a4.709,4.709,0,0,0-1.6,2.367L92.53,199.013a6.841,6.841,0,0,0,4.385,8.557l47.934,15.775a6.841,6.841,0,0,0,8.636-4.36l3.278-9.96a6.84,6.84,0,0,1-8.636,4.36" transform="translate(-92.211 -161.404)" fill="#299c90"/>
            </g>
          </g>
        </g>
        <path id="パス_46970" data-name="パス 46970" d="M84.245,147.737c1.777.338.8,2.813,1.633,4.419,1.07,2.064,3.5,1.041,4.941,6.085,2.167,7.568,3.892,18.227,4.668,18.541a64.559,64.559,0,0,1,12.567,6.906c5.154,3.835,15.447,5.9,16.742,5.56s5.3-2.07.672,1.4-1,4.618-9.878,4.6c-3.164-.005-13.323-2.592-19.025-3.86s-12.214-3.161-15.079-8.12-10.632-38.073,2.76-35.532" transform="translate(-16.759 -32.278)" fill="#f9af9a"/>
        <g id="グループ_9674" data-name="グループ 9674" transform="translate(57.319 131.538)" opacity="0.15" style="mix-blend-mode: multiply;isolation: isolate">
          <g id="グループ_9673" data-name="グループ 9673">
            <g id="グループ_9672" data-name="グループ 9672" clip-path="url(#clip-path-13)">
              <path id="パス_46971" data-name="パス 46971" d="M79.688,173.934l-6.059-5.579s-3.492,20.284,14.779,28.829c8.875,4.151,25.594,3.581,25.594,3.581L88.088,189.537Z" transform="translate(-73.362 -168.355)" fill="#299c90"/>
            </g>
          </g>
        </g>
        <path id="パス_46972" data-name="パス 46972" d="M146.877,201.27c-.186-.627-1.116-.074-3.265.552-.08.023-.163.058-.253.084-.36.069-.733.129-1.107.177-.208.017-.423.028-.638.035,1.752-.389,4.071-1.391,3.966-2-.14-.809-1-.161-3.73.613-1.761.5-3.2.466-3.711.071-1.313-1.014,2.592-3.487.654-3.139a18.831,18.831,0,0,0-2.906.994c-1.435.627-4.4,1.852-5.436,1.543a5.757,5.757,0,0,0-3.568.079s-5.336-.3-1.06,3.141c1.431,1.15.846,2.567,2.863,3.157,4.009,1.175,11.011.739,13.546.02.164-.046.327-.088.487-.132,1.315-.3,2.368-.842,2.363-1.2-.009-.549-1.637-.27-2.806.08a5.461,5.461,0,0,1-1.156.184c2.371-.362,5.011-1.366,5.008-1.98,0-.654-1.963-.173-3.357.23a5.422,5.422,0,0,1-1.324.17c2.424-.538,5.715-1.724,5.432-2.677" transform="translate(-27.153 -43.219)" fill="#f9af9a"/>
        <path id="パス_46973" data-name="パス 46973" d="M94.769,175.673a95.376,95.376,0,0,0-1.119-15A61.114,61.114,0,0,0,90.6,149.2a7.742,7.742,0,0,0-3.371-4.056c-5.7-3.207-13.73,1.375-14.393,10.713l.676,7.2a110.7,110.7,0,0,0,3.643,15.4c3.643,15.4,36.73,17.014,36.73,17.014l2.093-9.206Z" transform="translate(-15.929 -31.517)" fill="#27c830"/>
        <path id="パス_46974" data-name="パス 46974" d="M416.6,79.892l-39.167,8.535-11.371-52.18,24.708-5.384L408.5,42.73Z" transform="translate(-80.052 -6.749)" fill="#fff"/>
        <path id="パス_46975" data-name="パス 46975" d="M415.688,42.634l-14.721,3.208L397.7,30.857" transform="translate(-86.972 -6.748)" fill="#ddd"/>
        <line id="線_1" data-name="線 1" y1="3.472" x2="15.933" transform="translate(293.336 32.276)" fill="none" stroke="#d9f2ff" stroke-miterlimit="10" stroke-width="2.087"/>
        <line id="線_2" data-name="線 2" y1="3.472" x2="15.933" transform="translate(294.502 37.626)" fill="none" stroke="#d9f2ff" stroke-miterlimit="10" stroke-width="2.087"/>
        <line id="線_3" data-name="線 3" y1="6.308" x2="28.944" transform="translate(295.842 40.937)" fill="none" stroke="#d9f2ff" stroke-miterlimit="10" stroke-width="2.087"/>
        <line id="線_4" data-name="線 4" y1="6.308" x2="28.944" transform="translate(297.181 47.083)" fill="none" stroke="#d9f2ff" stroke-miterlimit="10" stroke-width="2.087"/>
        <line id="線_5" data-name="線 5" y1="6.308" x2="28.944" transform="translate(298.521 53.23)" fill="none" stroke="#d9f2ff" stroke-miterlimit="10" stroke-width="2.087"/>
        <line id="線_6" data-name="線 6" y1="6.308" x2="28.944" transform="translate(299.86 59.376)" fill="none" stroke="#d9f2ff" stroke-miterlimit="10" stroke-width="2.087"/>
        <line id="線_7" data-name="線 7" y1="6.308" x2="28.944" transform="translate(301.2 65.523)" fill="none" stroke="#d9f2ff" stroke-miterlimit="10" stroke-width="2.087"/>
        <path id="パス_46976" data-name="パス 46976" d="M70.71,127.731c2.392,3.62,8.267,3.675,10.956.269.061-.077-1.141-3.192-1.141-3.192a13.664,13.664,0,0,1-9.576-5.158,41.485,41.485,0,0,1-3.617-4.893c-.236-.363-.856.183-1.248.539-1.314,1.2-.974,2.989-.489,4.7.859,3.028,5.114,7.737,5.114,7.737" transform="translate(-14.25 -25.07)" fill="#fff"/>
        <path id="パス_46977" data-name="パス 46977" d="M83.768,110.94a8.741,8.741,0,0,1,9.244-7.92c3.1.195,6.735.064,8.171-1.941,2.049-2.86-1.056-5.838-3.181-4.689s-1.988-2.8-4.507-2.392a13.794,13.794,0,0,1-6.206-.03c-4.4-1.332-11.481.506-13.037,6.5s-4.654,2.02-8.739,8.17.681,12.868-5.039,17.634-14.366,11.225-12.732,19.3c1.981,9.788,7.149,12.062,13.889,11.677,9.387-.536,7.69-10.855,12.621-12.954,5.264-2.242,6.827-6.441,5.15-13.8-1.054-4.627,3.93-6.906,4.625-11.031.6-3.57-.577-4.916-.259-8.522" transform="translate(-10.396 -20.459)" fill="#064995"/>
        <g id="グループ_9677" data-name="グループ 9677" transform="translate(76.394 118.899)" opacity="0.15" style="mix-blend-mode: multiply;isolation: isolate">
          <g id="グループ_9676" data-name="グループ 9676">
            <g id="グループ_9675" data-name="グループ 9675" clip-path="url(#clip-path-14)">
              <path id="パス_46978" data-name="パス 46978" d="M97.776,154.888l1.909,16.883s.538-18.733-.181-19.483-1.727,2.6-1.727,2.6" transform="translate(-97.776 -152.178)" fill="#299c90"/>
            </g>
          </g>
        </g>
        <path id="パス_46979" data-name="パス 46979" d="M393.027,372.5A61.935,61.935,0,0,1,371,330.528l-.561-6.172-16.34-2.884-36.526,2.884-.562,6.172a61.931,61.931,0,0,1-22.03,41.971l-.478.4H393.5Z" transform="translate(-64.403 -70.301)" fill="#fffffb"/>
        <g id="グループ_9680" data-name="グループ 9680" transform="translate(248.701 251.172)" opacity="0.8">
          <g id="グループ_9679" data-name="グループ 9679">
            <g id="グループ_9678" data-name="グループ 9678" clip-path="url(#clip-path-15)">
              <path id="パス_46980" data-name="パス 46980" d="M322.215,330.528a61.889,61.889,0,0,1-3.9,16.657h61.8a61.888,61.888,0,0,1-3.9-16.657l-.561-6.172-16.34-2.884-36.526,2.884Z" transform="translate(-318.311 -321.473)" fill="#cccbca"/>
            </g>
          </g>
        </g>
        <path id="パス_46981" data-name="パス 46981" d="M435.922,292.388H210.182A11.481,11.481,0,0,1,198.7,280.907V134.269a11.48,11.48,0,0,1,11.481-11.481H435.922A11.48,11.48,0,0,1,447.4,134.269V280.907a11.481,11.481,0,0,1-11.481,11.481" transform="translate(-43.453 -26.852)" fill="#00325b"/>
        <rect id="長方形_2759" data-name="長方形 2759" width="230.729" height="127.034" transform="translate(164.235 104.145)" fill="#0a5487"/>
        <path id="パス_46982" data-name="パス 46982" d="M198.7,307.325v13.938a11.481,11.481,0,0,0,11.481,11.481H435.923A11.481,11.481,0,0,0,447.4,321.263V307.325Z" transform="translate(-43.453 -67.207)" fill="#fffffb"/>
        <g id="グループ_9683" data-name="グループ 9683" transform="translate(273.595 245.964)" opacity="0.8">
          <g id="グループ_9682" data-name="グループ 9682">
            <g id="グループ_9681" data-name="グループ 9681" clip-path="url(#clip-path-16)">
              <path id="パス_46983" data-name="パス 46983" d="M362.182,320.812a6,6,0,1,1-6.005-6.005,6.005,6.005,0,0,1,6.005,6.005" transform="translate(-350.172 -314.807)" fill="#cccbca"/>
            </g>
          </g>
        </g>
        <path id="パス_46984" data-name="パス 46984" d="M394.407,196.136V171.145A8.145,8.145,0,0,0,386.262,163H327.946l-9.746-6.335H291.425a8.145,8.145,0,0,0-8.141,8.385l.916,31.086Z" transform="translate(-61.949 -34.26)" fill="#5fcdd4"/>
        <g id="グループ_9686" data-name="グループ 9686" transform="translate(232.822 135.373)" style="mix-blend-mode: multiply;isolation: isolate">
          <g id="グループ_9685" data-name="グループ 9685">
            <g id="グループ_9684" data-name="グループ 9684" clip-path="url(#clip-path-17)">
              <path id="パス_46985" data-name="パス 46985" d="M297.988,173.263v50.789h94.991V173.373Z" transform="translate(-297.988 -173.263)" fill="#dadce0"/>
            </g>
          </g>
        </g>
        <path id="パス_46986" data-name="パス 46986" d="M293.522,177.729v50.789h94.536V177.839Z" transform="translate(-64.189 -38.867)" fill="#fff"/>
        <path id="パス_46987" data-name="パス 46987" d="M279.521,195.592l7.648,58.867a5.525,5.525,0,0,0,5.538,4.733h91.78a5.526,5.526,0,0,0,5.533-4.7l8.073-58.867a5.47,5.47,0,0,0-5.533-6.121h-107.5a5.472,5.472,0,0,0-5.538,6.084" transform="translate(-61.117 -41.443)" fill="#42bbc2"/>
        <path id="パス_46988" data-name="パス 46988" d="M279.283,197.675l7.647,58.867a5.525,5.525,0,0,0,5.538,4.733h91.78a5.525,5.525,0,0,0,5.533-4.7l8.073-58.867a5.47,5.47,0,0,0-5.533-6.121H284.82a5.472,5.472,0,0,0-5.538,6.084" transform="translate(-61.065 -41.898)" fill="#34add4"/>
        <g id="グループ_9689" data-name="グループ 9689" transform="translate(155.249 95.936)" opacity="0.58" style="mix-blend-mode: screen;isolation: isolate">
          <g id="グループ_9688" data-name="グループ 9688">
            <g id="グループ_9687" data-name="グループ 9687" clip-path="url(#clip-path-18)">
              <path id="パス_46989" data-name="パス 46989" d="M445.6,128.107a11.464,11.464,0,0,0-9.677-5.319H210.183A11.481,11.481,0,0,0,198.7,134.269v134.21Z" transform="translate(-198.702 -122.788)" fill="#00325b"/>
            </g>
          </g>
        </g>
        <path id="パス_46990" data-name="パス 46990" d="M151.387,124.691c17.837-83.931,155.471-83.069,166.608.28" transform="translate(-33.106 -13.58)" fill="none" stroke="#3b88ff" stroke-miterlimit="10" stroke-width="2" stroke-dasharray="7.27 10.905"/>
        <path id="パス_46991" data-name="パス 46991" d="M363.45,152.194l-7.479-15.038,6.607,3.212,6.062-4.146Z" transform="translate(-77.846 -29.79)" fill="#3b88ff"/>
        <path id="パス_46992" data-name="パス 46992" d="M505.932,271.869,480.1,253.908l23.929-34.417,16.3,11.331,2.649,16.537Z" transform="translate(-104.99 -47.999)" fill="#fff"/>
        <path id="パス_46993" data-name="パス 46993" d="M532.51,250.635l-9.709-6.751L529.672,234" transform="translate(-114.329 -51.172)" fill="#ddd"/>
        <line id="線_8" data-name="線 8" x2="10.509" y2="7.306" transform="translate(399.358 179.044)" fill="none" stroke="#d9f2ff" stroke-miterlimit="10" stroke-width="1.638"/>
        <line id="線_9" data-name="線 9" x2="10.509" y2="7.306" transform="translate(396.905 182.573)" fill="none" stroke="#d9f2ff" stroke-miterlimit="10" stroke-width="1.638"/>
        <line id="線_10" data-name="線 10" x2="19.091" y2="13.273" transform="translate(394.086 186.627)" fill="none" stroke="#d9f2ff" stroke-miterlimit="10" stroke-width="1.638"/>
        <line id="線_11" data-name="線 11" x2="19.091" y2="13.273" transform="translate(391.267 190.681)" fill="none" stroke="#d9f2ff" stroke-miterlimit="10" stroke-width="1.638"/>
        <line id="線_12" data-name="線 12" x2="19.091" y2="13.273" transform="translate(388.449 194.735)" fill="none" stroke="#d9f2ff" stroke-miterlimit="10" stroke-width="1.638"/>
        <line id="線_13" data-name="線 13" x2="19.091" y2="13.273" transform="translate(385.63 198.789)" fill="none" stroke="#d9f2ff" stroke-miterlimit="10" stroke-width="1.638"/>
        <line id="線_14" data-name="線 14" x2="19.091" y2="13.273" transform="translate(382.811 202.843)" fill="none" stroke="#d9f2ff" stroke-miterlimit="10" stroke-width="1.638"/>
        <path id="パス_46994" data-name="パス 46994" d="M124.462,78.458,98.629,60.5,122.558,26.08l16.3,11.331L141.5,53.947Z" transform="translate(-21.569 -5.703)" fill="#fff"/>
        <path id="パス_46995" data-name="パス 46995" d="M151.04,57.224l-9.709-6.751,6.872-9.884" transform="translate(-30.907 -8.876)" fill="#ddd"/>
        <line id="線_15" data-name="線 15" x2="10.509" y2="7.306" transform="translate(101.31 27.93)" fill="none" stroke="#d9f2ff" stroke-miterlimit="10" stroke-width="1.638"/>
        <line id="線_16" data-name="線 16" x2="10.509" y2="7.306" transform="translate(98.857 31.458)" fill="none" stroke="#d9f2ff" stroke-miterlimit="10" stroke-width="1.638"/>
        <line id="線_17" data-name="線 17" x2="19.091" y2="13.273" transform="translate(96.038 35.512)" fill="none" stroke="#d9f2ff" stroke-miterlimit="10" stroke-width="1.638"/>
        <line id="線_18" data-name="線 18" x2="19.091" y2="13.273" transform="translate(93.219 39.566)" fill="none" stroke="#d9f2ff" stroke-miterlimit="10" stroke-width="1.638"/>
        <line id="線_19" data-name="線 19" x2="19.091" y2="13.273" transform="translate(90.401 43.62)" fill="none" stroke="#d9f2ff" stroke-miterlimit="10" stroke-width="1.638"/>
        <line id="線_20" data-name="線 20" x2="19.091" y2="13.273" transform="translate(87.582 47.674)" fill="none" stroke="#d9f2ff" stroke-miterlimit="10" stroke-width="1.638"/>
        <line id="線_21" data-name="線 21" x2="19.091" y2="13.273" transform="translate(84.763 51.728)" fill="none" stroke="#d9f2ff" stroke-miterlimit="10" stroke-width="1.638"/>
        <path id="パス_46996" data-name="パス 46996" d="M267.974,133.068,233.45,150.653,210.023,104.66,231.8,93.567l19.488,6.747Z" transform="translate(-45.929 -20.462)" fill="#fff"/>
        <path id="パス_46997" data-name="パス 46997" d="M257.615,100.157l-12.975,6.609-6.728-13.208" transform="translate(-52.028 -20.46)" fill="#ddd"/>
        <line id="線_22" data-name="線 22" y1="7.153" x2="14.043" transform="translate(172.478 81.092)" fill="none" stroke="#d9f2ff" stroke-miterlimit="10" stroke-width="2.017"/>
        <line id="線_23" data-name="線 23" y1="7.153" x2="14.043" transform="translate(174.88 85.807)" fill="none" stroke="#d9f2ff" stroke-miterlimit="10" stroke-width="2.017"/>
        <line id="線_24" data-name="線 24" y1="12.995" x2="25.512" transform="translate(177.639 85.383)" fill="none" stroke="#d9f2ff" stroke-miterlimit="10" stroke-width="2.017"/>
        <line id="線_25" data-name="線 25" y1="12.995" x2="25.512" transform="translate(180.399 90.801)" fill="none" stroke="#d9f2ff" stroke-miterlimit="10" stroke-width="2.017"/>
        <line id="線_26" data-name="線 26" y1="12.995" x2="25.512" transform="translate(183.158 96.218)" fill="none" stroke="#d9f2ff" stroke-miterlimit="10" stroke-width="2.017"/>
        <line id="線_27" data-name="線 27" y1="12.995" x2="25.512" transform="translate(185.918 101.636)" fill="none" stroke="#d9f2ff" stroke-miterlimit="10" stroke-width="2.017"/>
        <line id="線_28" data-name="線 28" y1="12.995" x2="25.512" transform="translate(188.678 107.054)" fill="none" stroke="#d9f2ff" stroke-miterlimit="10" stroke-width="2.017"/>
        <path id="パス_46998" data-name="パス 46998" d="M587,134.525,543.86,151.038l-22-57.477,27.216-10.418,22.259,10.448Z" transform="translate(-114.123 -18.182)" fill="#fff"/>
        <path id="パス_46999" data-name="パス 46999" d="M579.246,93.434l-16.215,6.207-6.318-16.506" transform="translate(-121.745 -18.18)" fill="#ddd"/>
        <line id="線_29" data-name="線 29" y1="6.718" x2="17.55" transform="translate(417.169 74.512)" fill="none" stroke="#d9f2ff" stroke-miterlimit="10" stroke-width="2.405"/>
        <line id="線_30" data-name="線 30" y1="6.718" x2="17.55" transform="translate(419.425 80.405)" fill="none" stroke="#d9f2ff" stroke-miterlimit="10" stroke-width="2.405"/>
        <line id="線_31" data-name="線 31" y1="12.203" x2="31.882" transform="translate(422.016 81.69)" fill="none" stroke="#d9f2ff" stroke-miterlimit="10" stroke-width="2.405"/>
        <line id="線_32" data-name="線 32" y1="12.203" x2="31.882" transform="translate(424.608 88.46)" fill="none" stroke="#d9f2ff" stroke-miterlimit="10" stroke-width="2.405"/>
        <line id="線_33" data-name="線 33" y1="12.203" x2="31.882" transform="translate(427.199 95.231)" fill="none" stroke="#d9f2ff" stroke-miterlimit="10" stroke-width="2.405"/>
        <line id="線_34" data-name="線 34" y1="12.203" x2="31.882" transform="translate(429.791 102.001)" fill="none" stroke="#d9f2ff" stroke-miterlimit="10" stroke-width="2.405"/>
        <line id="線_35" data-name="線 35" y1="12.203" x2="31.882" transform="translate(432.382 108.771)" fill="none" stroke="#d9f2ff" stroke-miterlimit="10" stroke-width="2.405"/>
        <path id="パス_47000" data-name="パス 47000" d="M184.075,343.17l-16.106-43.3,57.683-21.456,10.16,27.313-10.657,22.16Z" transform="translate(-36.732 -60.885)" fill="#fff"/>
        <path id="パス_47001" data-name="パス 47001" d="M239.662,335.828l-6.054-16.273,16.565-6.162" transform="translate(-51.087 -68.534)" fill="#ddd"/>
        <line id="線_36" data-name="線 36" x2="6.551" y2="17.612" transform="translate(182.98 226.906)" fill="none" stroke="#d9f2ff" stroke-miterlimit="10" stroke-width="2.405"/>
        <line id="線_37" data-name="線 37" x2="6.551" y2="17.612" transform="translate(177.066 229.106)" fill="none" stroke="#d9f2ff" stroke-miterlimit="10" stroke-width="2.405"/>
        <line id="線_38" data-name="線 38" x2="11.902" y2="31.996" transform="translate(170.271 231.634)" fill="none" stroke="#d9f2ff" stroke-miterlimit="10" stroke-width="2.405"/>
        <line id="線_39" data-name="線 39" x2="11.902" y2="31.996" transform="translate(163.477 234.161)" fill="none" stroke="#d9f2ff" stroke-miterlimit="10" stroke-width="2.405"/>
        <line id="線_40" data-name="線 40" x2="11.902" y2="31.996" transform="translate(156.682 236.689)" fill="none" stroke="#d9f2ff" stroke-miterlimit="10" stroke-width="2.405"/>
        <line id="線_41" data-name="線 41" x2="11.903" y2="31.996" transform="translate(149.887 239.216)" fill="none" stroke="#d9f2ff" stroke-miterlimit="10" stroke-width="2.405"/>
        <line id="線_42" data-name="線 42" x2="11.902" y2="31.996" transform="translate(143.093 241.744)" fill="none" stroke="#d9f2ff" stroke-miterlimit="10" stroke-width="2.405"/>
      </g>
    </g>
  </g>
</svg>
